<svg width="504" height="707" viewBox="0 0 504 707" fill="none" xmlns="http://www.w3.org/2000/svg">
<rect width="504" height="707" rx="30" fill="white"/>
<rect x="16" y="250" width="476" height="32" fill="#D9D9D9"/>
<path d="M32.7093 270.1C31.5893 270.1 30.6893 269.74 29.8493 268.98L30.3393 268.4C31.0693 269.07 31.7693 269.39 32.7393 269.39C33.6893 269.39 34.2993 268.89 34.2993 268.2V268.18C34.2993 267.53 33.9493 267.17 32.4793 266.85C30.8693 266.5 30.1293 265.98 30.1293 264.83V264.81C30.1293 263.72 31.0993 262.9 32.4293 262.9C33.4593 262.9 34.1693 263.19 34.8893 263.76L34.4293 264.37C33.7793 263.84 33.1293 263.61 32.4093 263.61C31.4893 263.61 30.9193 264.1 30.9193 264.74V264.76C30.9193 265.42 31.2693 265.8 32.8193 266.12C34.3793 266.47 35.0993 267.03 35.0993 268.1V268.12C35.0993 269.32 34.0993 270.1 32.7093 270.1ZM38.6393 269.14L40.2993 264.83H41.1193L38.9493 270.17C38.5093 271.24 37.9993 271.63 37.2293 271.63C36.7993 271.63 36.4793 271.54 36.1293 271.37L36.3893 270.76C36.6393 270.89 36.8693 270.95 37.1993 270.95C37.6693 270.95 37.9493 270.71 38.2593 269.98L35.9093 264.83H36.7593L38.6393 269.14ZM43.6236 270.11C42.6636 270.11 41.6936 269.57 41.6936 268.5V268.48C41.6936 267.4 42.5936 266.81 43.9036 266.81C44.5736 266.81 45.0236 266.9 45.4936 267.03V266.85C45.4936 265.92 44.9236 265.44 43.9536 265.44C43.3436 265.44 42.8636 265.59 42.3836 265.82L42.1536 265.19C42.7236 264.92 43.2736 264.76 44.0336 264.76C44.7636 264.76 45.3236 264.95 45.7036 265.33C46.0536 265.68 46.2336 266.19 46.2336 266.84V270H45.4936V269.22C45.1336 269.69 44.5436 270.11 43.6236 270.11ZM43.7736 269.5C44.7336 269.5 45.5036 268.92 45.5036 268.1V267.6C45.1136 267.49 44.6236 267.38 43.9836 267.38C43.0136 267.38 42.4736 267.8 42.4736 268.45V268.47C42.4736 269.12 43.0836 269.5 43.7736 269.5ZM47.8746 270V264.83H48.6446V266.18C49.0246 265.32 49.7746 264.71 50.7546 264.74V265.57H50.6946C49.5646 265.57 48.6446 266.38 48.6446 267.94V270H47.8746ZM53.2135 270.11C52.2535 270.11 51.2835 269.57 51.2835 268.5V268.48C51.2835 267.4 52.1835 266.81 53.4935 266.81C54.1635 266.81 54.6135 266.9 55.0835 267.03V266.85C55.0835 265.92 54.5135 265.44 53.5435 265.44C52.9335 265.44 52.4535 265.59 51.9735 265.82L51.7435 265.19C52.3135 264.92 52.8635 264.76 53.6235 264.76C54.3535 264.76 54.9135 264.95 55.2935 265.33C55.6435 265.68 55.8235 266.19 55.8235 266.84V270H55.0835V269.22C54.7235 269.69 54.1335 270.11 53.2135 270.11ZM53.3635 269.5C54.3235 269.5 55.0935 268.92 55.0935 268.1V267.6C54.7035 267.49 54.2135 267.38 53.5735 267.38C52.6035 267.38 52.0635 267.8 52.0635 268.45V268.47C52.0635 269.12 52.6735 269.5 53.3635 269.5ZM59.1457 270.09C58.3057 270.09 57.6857 269.68 57.6857 268.63V265.51H56.9657V264.83H57.6857V263.27H58.4557V264.83H60.0957V265.51H58.4557V268.53C58.4557 269.17 58.8057 269.39 59.3257 269.39C59.5957 269.39 59.8057 269.34 60.0757 269.21V269.87C59.8057 270.02 59.5157 270.09 59.1457 270.09ZM66.6267 270.11C65.3867 270.11 64.1567 269.13 64.1567 267.43V267.41C64.1567 265.73 65.3867 264.72 66.6267 264.72C67.5867 264.72 68.2067 265.23 68.6067 265.82V262.7H69.3767V270H68.6067V268.96C68.1767 269.58 67.5867 270.11 66.6267 270.11ZM66.7667 269.42C67.7267 269.42 68.6367 268.61 68.6367 267.42V267.4C68.6367 266.21 67.7267 265.41 66.7667 265.41C65.7667 265.41 64.9467 266.15 64.9467 267.4V267.42C64.9467 268.65 65.7767 269.42 66.7667 269.42ZM72.6373 270.11C71.6773 270.11 70.7073 269.57 70.7073 268.5V268.48C70.7073 267.4 71.6073 266.81 72.9173 266.81C73.5873 266.81 74.0373 266.9 74.5073 267.03V266.85C74.5073 265.92 73.9373 265.44 72.9673 265.44C72.3573 265.44 71.8773 265.59 71.3973 265.82L71.1673 265.19C71.7373 264.92 72.2873 264.76 73.0473 264.76C73.7773 264.76 74.3373 264.95 74.7173 265.33C75.0673 265.68 75.2473 266.19 75.2473 266.84V270H74.5073V269.22C74.1473 269.69 73.5573 270.11 72.6373 270.11ZM72.7873 269.5C73.7473 269.5 74.5173 268.92 74.5173 268.1V267.6C74.1273 267.49 73.6373 267.38 72.9973 267.38C72.0273 267.38 71.4873 267.8 71.4873 268.45V268.47C71.4873 269.12 72.0973 269.5 72.7873 269.5ZM76.8883 270V264.83H77.6583V265.73C78.0083 265.17 78.5383 264.72 79.4283 264.72C80.6683 264.72 81.4083 265.56 81.4083 266.79V270H80.6383V266.98C80.6383 266.02 80.1283 265.42 79.2083 265.42C78.3183 265.42 77.6583 266.07 77.6583 267.04V270H76.8883ZM86.0485 270V262.7H86.8185V267.74L89.6085 264.83H90.5685L88.3985 267.05L90.6385 270H89.7185L87.8685 267.59L86.8185 268.65V270H86.0485ZM93.7479 270.12C92.3379 270.12 91.1679 269.03 91.1679 267.43V267.41C91.1679 265.92 92.2079 264.72 93.6479 264.72C95.1779 264.72 96.0579 265.94 96.0579 267.45C96.0579 267.56 96.0579 267.61 96.0479 267.7H91.9479C92.0579 268.82 92.8479 269.45 93.7679 269.45C94.4879 269.45 94.9679 269.16 95.3979 268.72L95.8779 269.15C95.3579 269.74 94.7379 270.12 93.7479 270.12ZM91.9479 267.13H95.2779C95.1979 266.2 94.6679 265.37 93.6279 265.37C92.7179 265.37 92.0579 266.13 91.9479 267.13ZM99.1359 270.09C98.2959 270.09 97.6759 269.68 97.6759 268.63V265.51H96.9559V264.83H97.6759V263.27H98.4459V264.83H100.086V265.51H98.4459V268.53C98.4459 269.17 98.7959 269.39 99.3159 269.39C99.5859 269.39 99.7959 269.34 100.066 269.21V269.87C99.7959 270.02 99.5059 270.09 99.1359 270.09ZM103.562 270.12C102.152 270.12 100.982 269.03 100.982 267.43V267.41C100.982 265.92 102.022 264.72 103.462 264.72C104.992 264.72 105.872 265.94 105.872 267.45C105.872 267.56 105.872 267.61 105.862 267.7H101.762C101.872 268.82 102.662 269.45 103.582 269.45C104.302 269.45 104.782 269.16 105.212 268.72L105.692 269.15C105.172 269.74 104.552 270.12 103.562 270.12ZM101.762 267.13H105.092C105.012 266.2 104.482 265.37 103.442 265.37C102.532 265.37 101.872 266.13 101.762 267.13ZM107.22 270V264.83H107.99V265.73C108.34 265.17 108.87 264.72 109.76 264.72C111 264.72 111.74 265.56 111.74 266.79V270H110.97V266.98C110.97 266.02 110.46 265.42 109.54 265.42C108.65 265.42 107.99 266.07 107.99 267.04V270H107.22ZM115.112 270.09C114.272 270.09 113.652 269.68 113.652 268.63V265.51H112.932V264.83H113.652V263.27H114.422V264.83H116.062V265.51H114.422V268.53C114.422 269.17 114.772 269.39 115.292 269.39C115.562 269.39 115.772 269.34 116.042 269.21V269.87C115.772 270.02 115.482 270.09 115.112 270.09ZM119.325 270.11C118.085 270.11 117.345 269.27 117.345 268.04V264.83H118.115V267.85C118.115 268.81 118.625 269.41 119.545 269.41C120.425 269.41 121.095 268.76 121.095 267.79V264.83H121.855V270H121.095V269.1C120.745 269.66 120.215 270.11 119.325 270.11ZM125.128 270.11C124.168 270.11 123.198 269.57 123.198 268.5V268.48C123.198 267.4 124.098 266.81 125.408 266.81C126.078 266.81 126.528 266.9 126.998 267.03V266.85C126.998 265.92 126.428 265.44 125.458 265.44C124.848 265.44 124.368 265.59 123.888 265.82L123.658 265.19C124.228 264.92 124.778 264.76 125.538 264.76C126.268 264.76 126.828 264.95 127.208 265.33C127.558 265.68 127.738 266.19 127.738 266.84V270H126.998V269.22C126.638 269.69 126.048 270.11 125.128 270.11ZM125.278 269.5C126.238 269.5 127.008 268.92 127.008 268.1V267.6C126.618 267.49 126.128 267.38 125.488 267.38C124.518 267.38 123.978 267.8 123.978 268.45V268.47C123.978 269.12 124.588 269.5 125.278 269.5ZM129.379 270V264.83H130.149V265.73C130.499 265.17 131.029 264.72 131.919 264.72C133.159 264.72 133.899 265.56 133.899 266.79V270H133.129V266.98C133.129 266.02 132.619 265.42 131.699 265.42C130.809 265.42 130.149 266.07 130.149 267.04V270H129.379Z" fill="black"/>
<rect x="16" y="308" width="476" height="32" fill="#D9D9D9"/>
<path d="M32.7093 328.1C31.5893 328.1 30.6893 327.74 29.8493 326.98L30.3393 326.4C31.0693 327.07 31.7693 327.39 32.7393 327.39C33.6893 327.39 34.2993 326.89 34.2993 326.2V326.18C34.2993 325.53 33.9493 325.17 32.4793 324.85C30.8693 324.5 30.1293 323.98 30.1293 322.83V322.81C30.1293 321.72 31.0993 320.9 32.4293 320.9C33.4593 320.9 34.1693 321.19 34.8893 321.76L34.4293 322.37C33.7793 321.84 33.1293 321.61 32.4093 321.61C31.4893 321.61 30.9193 322.1 30.9193 322.74V322.76C30.9193 323.42 31.2693 323.8 32.8193 324.12C34.3793 324.47 35.0993 325.03 35.0993 326.1V326.12C35.0993 327.32 34.0993 328.1 32.7093 328.1ZM38.6393 327.14L40.2993 322.83H41.1193L38.9493 328.17C38.5093 329.24 37.9993 329.63 37.2293 329.63C36.7993 329.63 36.4793 329.54 36.1293 329.37L36.3893 328.76C36.6393 328.89 36.8693 328.95 37.1993 328.95C37.6693 328.95 37.9493 328.71 38.2593 327.98L35.9093 322.83H36.7593L38.6393 327.14ZM43.6236 328.11C42.6636 328.11 41.6936 327.57 41.6936 326.5V326.48C41.6936 325.4 42.5936 324.81 43.9036 324.81C44.5736 324.81 45.0236 324.9 45.4936 325.03V324.85C45.4936 323.92 44.9236 323.44 43.9536 323.44C43.3436 323.44 42.8636 323.59 42.3836 323.82L42.1536 323.19C42.7236 322.92 43.2736 322.76 44.0336 322.76C44.7636 322.76 45.3236 322.95 45.7036 323.33C46.0536 323.68 46.2336 324.19 46.2336 324.84V328H45.4936V327.22C45.1336 327.69 44.5436 328.11 43.6236 328.11ZM43.7736 327.5C44.7336 327.5 45.5036 326.92 45.5036 326.1V325.6C45.1136 325.49 44.6236 325.38 43.9836 325.38C43.0136 325.38 42.4736 325.8 42.4736 326.45V326.47C42.4736 327.12 43.0836 327.5 43.7736 327.5ZM47.8746 328V322.83H48.6446V324.18C49.0246 323.32 49.7746 322.71 50.7546 322.74V323.57H50.6946C49.5646 323.57 48.6446 324.38 48.6446 325.94V328H47.8746ZM53.2135 328.11C52.2535 328.11 51.2835 327.57 51.2835 326.5V326.48C51.2835 325.4 52.1835 324.81 53.4935 324.81C54.1635 324.81 54.6135 324.9 55.0835 325.03V324.85C55.0835 323.92 54.5135 323.44 53.5435 323.44C52.9335 323.44 52.4535 323.59 51.9735 323.82L51.7435 323.19C52.3135 322.92 52.8635 322.76 53.6235 322.76C54.3535 322.76 54.9135 322.95 55.2935 323.33C55.6435 323.68 55.8235 324.19 55.8235 324.84V328H55.0835V327.22C54.7235 327.69 54.1335 328.11 53.2135 328.11ZM53.3635 327.5C54.3235 327.5 55.0935 326.92 55.0935 326.1V325.6C54.7035 325.49 54.2135 325.38 53.5735 325.38C52.6035 325.38 52.0635 325.8 52.0635 326.45V326.47C52.0635 327.12 52.6735 327.5 53.3635 327.5ZM59.1457 328.09C58.3057 328.09 57.6857 327.68 57.6857 326.63V323.51H56.9657V322.83H57.6857V321.27H58.4557V322.83H60.0957V323.51H58.4557V326.53C58.4557 327.17 58.8057 327.39 59.3257 327.39C59.5957 327.39 59.8057 327.34 60.0757 327.21V327.87C59.8057 328.02 59.5157 328.09 59.1457 328.09ZM66.6267 328.11C65.3867 328.11 64.1567 327.13 64.1567 325.43V325.41C64.1567 323.73 65.3867 322.72 66.6267 322.72C67.5867 322.72 68.2067 323.23 68.6067 323.82V320.7H69.3767V328H68.6067V326.96C68.1767 327.58 67.5867 328.11 66.6267 328.11ZM66.7667 327.42C67.7267 327.42 68.6367 326.61 68.6367 325.42V325.4C68.6367 324.21 67.7267 323.41 66.7667 323.41C65.7667 323.41 64.9467 324.15 64.9467 325.4V325.42C64.9467 326.65 65.7767 327.42 66.7667 327.42ZM72.6373 328.11C71.6773 328.11 70.7073 327.57 70.7073 326.5V326.48C70.7073 325.4 71.6073 324.81 72.9173 324.81C73.5873 324.81 74.0373 324.9 74.5073 325.03V324.85C74.5073 323.92 73.9373 323.44 72.9673 323.44C72.3573 323.44 71.8773 323.59 71.3973 323.82L71.1673 323.19C71.7373 322.92 72.2873 322.76 73.0473 322.76C73.7773 322.76 74.3373 322.95 74.7173 323.33C75.0673 323.68 75.2473 324.19 75.2473 324.84V328H74.5073V327.22C74.1473 327.69 73.5573 328.11 72.6373 328.11ZM72.7873 327.5C73.7473 327.5 74.5173 326.92 74.5173 326.1V325.6C74.1273 325.49 73.6373 325.38 72.9973 325.38C72.0273 325.38 71.4873 325.8 71.4873 326.45V326.47C71.4873 327.12 72.0973 327.5 72.7873 327.5ZM76.8883 328V322.83H77.6583V323.73C78.0083 323.17 78.5383 322.72 79.4283 322.72C80.6683 322.72 81.4083 323.56 81.4083 324.79V328H80.6383V324.98C80.6383 324.02 80.1283 323.42 79.2083 323.42C78.3183 323.42 77.6583 324.07 77.6583 325.04V328H76.8883ZM86.0485 328V320.7H86.8185V325.74L89.6085 322.83H90.5685L88.3985 325.05L90.6385 328H89.7185L87.8685 325.59L86.8185 326.65V328H86.0485ZM93.7479 328.12C92.3379 328.12 91.1679 327.03 91.1679 325.43V325.41C91.1679 323.92 92.2079 322.72 93.6479 322.72C95.1779 322.72 96.0579 323.94 96.0579 325.45C96.0579 325.56 96.0579 325.61 96.0479 325.7H91.9479C92.0579 326.82 92.8479 327.45 93.7679 327.45C94.4879 327.45 94.9679 327.16 95.3979 326.72L95.8779 327.15C95.3579 327.74 94.7379 328.12 93.7479 328.12ZM91.9479 325.13H95.2779C95.1979 324.2 94.6679 323.37 93.6279 323.37C92.7179 323.37 92.0579 324.13 91.9479 325.13ZM99.1359 328.09C98.2959 328.09 97.6759 327.68 97.6759 326.63V323.51H96.9559V322.83H97.6759V321.27H98.4459V322.83H100.086V323.51H98.4459V326.53C98.4459 327.17 98.7959 327.39 99.3159 327.39C99.5859 327.39 99.7959 327.34 100.066 327.21V327.87C99.7959 328.02 99.5059 328.09 99.1359 328.09ZM103.562 328.12C102.152 328.12 100.982 327.03 100.982 325.43V325.41C100.982 323.92 102.022 322.72 103.462 322.72C104.992 322.72 105.872 323.94 105.872 325.45C105.872 325.56 105.872 325.61 105.862 325.7H101.762C101.872 326.82 102.662 327.45 103.582 327.45C104.302 327.45 104.782 327.16 105.212 326.72L105.692 327.15C105.172 327.74 104.552 328.12 103.562 328.12ZM101.762 325.13H105.092C105.012 324.2 104.482 323.37 103.442 323.37C102.532 323.37 101.872 324.13 101.762 325.13ZM107.22 328V322.83H107.99V323.73C108.34 323.17 108.87 322.72 109.76 322.72C111 322.72 111.74 323.56 111.74 324.79V328H110.97V324.98C110.97 324.02 110.46 323.42 109.54 323.42C108.65 323.42 107.99 324.07 107.99 325.04V328H107.22ZM115.112 328.09C114.272 328.09 113.652 327.68 113.652 326.63V323.51H112.932V322.83H113.652V321.27H114.422V322.83H116.062V323.51H114.422V326.53C114.422 327.17 114.772 327.39 115.292 327.39C115.562 327.39 115.772 327.34 116.042 327.21V327.87C115.772 328.02 115.482 328.09 115.112 328.09ZM119.325 328.11C118.085 328.11 117.345 327.27 117.345 326.04V322.83H118.115V325.85C118.115 326.81 118.625 327.41 119.545 327.41C120.425 327.41 121.095 326.76 121.095 325.79V322.83H121.855V328H121.095V327.1C120.745 327.66 120.215 328.11 119.325 328.11ZM125.128 328.11C124.168 328.11 123.198 327.57 123.198 326.5V326.48C123.198 325.4 124.098 324.81 125.408 324.81C126.078 324.81 126.528 324.9 126.998 325.03V324.85C126.998 323.92 126.428 323.44 125.458 323.44C124.848 323.44 124.368 323.59 123.888 323.82L123.658 323.19C124.228 322.92 124.778 322.76 125.538 322.76C126.268 322.76 126.828 322.95 127.208 323.33C127.558 323.68 127.738 324.19 127.738 324.84V328H126.998V327.22C126.638 327.69 126.048 328.11 125.128 328.11ZM125.278 327.5C126.238 327.5 127.008 326.92 127.008 326.1V325.6C126.618 325.49 126.128 325.38 125.488 325.38C124.518 325.38 123.978 325.8 123.978 326.45V326.47C123.978 327.12 124.588 327.5 125.278 327.5ZM129.379 328V322.83H130.149V323.73C130.499 323.17 131.029 322.72 131.919 322.72C133.159 322.72 133.899 323.56 133.899 324.79V328H133.129V324.98C133.129 324.02 132.619 323.42 131.699 323.42C130.809 323.42 130.149 324.07 130.149 325.04V328H129.379Z" fill="black"/>
<rect x="16" y="366" width="476" height="32" fill="#D9D9D9"/>
<path d="M32.7093 386.1C31.5893 386.1 30.6893 385.74 29.8493 384.98L30.3393 384.4C31.0693 385.07 31.7693 385.39 32.7393 385.39C33.6893 385.39 34.2993 384.89 34.2993 384.2V384.18C34.2993 383.53 33.9493 383.17 32.4793 382.85C30.8693 382.5 30.1293 381.98 30.1293 380.83V380.81C30.1293 379.72 31.0993 378.9 32.4293 378.9C33.4593 378.9 34.1693 379.19 34.8893 379.76L34.4293 380.37C33.7793 379.84 33.1293 379.61 32.4093 379.61C31.4893 379.61 30.9193 380.1 30.9193 380.74V380.76C30.9193 381.42 31.2693 381.8 32.8193 382.12C34.3793 382.47 35.0993 383.03 35.0993 384.1V384.12C35.0993 385.32 34.0993 386.1 32.7093 386.1ZM38.6393 385.14L40.2993 380.83H41.1193L38.9493 386.17C38.5093 387.24 37.9993 387.63 37.2293 387.63C36.7993 387.63 36.4793 387.54 36.1293 387.37L36.3893 386.76C36.6393 386.89 36.8693 386.95 37.1993 386.95C37.6693 386.95 37.9493 386.71 38.2593 385.98L35.9093 380.83H36.7593L38.6393 385.14ZM43.6236 386.11C42.6636 386.11 41.6936 385.57 41.6936 384.5V384.48C41.6936 383.4 42.5936 382.81 43.9036 382.81C44.5736 382.81 45.0236 382.9 45.4936 383.03V382.85C45.4936 381.92 44.9236 381.44 43.9536 381.44C43.3436 381.44 42.8636 381.59 42.3836 381.82L42.1536 381.19C42.7236 380.92 43.2736 380.76 44.0336 380.76C44.7636 380.76 45.3236 380.95 45.7036 381.33C46.0536 381.68 46.2336 382.19 46.2336 382.84V386H45.4936V385.22C45.1336 385.69 44.5436 386.11 43.6236 386.11ZM43.7736 385.5C44.7336 385.5 45.5036 384.92 45.5036 384.1V383.6C45.1136 383.49 44.6236 383.38 43.9836 383.38C43.0136 383.38 42.4736 383.8 42.4736 384.45V384.47C42.4736 385.12 43.0836 385.5 43.7736 385.5ZM47.8746 386V380.83H48.6446V382.18C49.0246 381.32 49.7746 380.71 50.7546 380.74V381.57H50.6946C49.5646 381.57 48.6446 382.38 48.6446 383.94V386H47.8746ZM53.2135 386.11C52.2535 386.11 51.2835 385.57 51.2835 384.5V384.48C51.2835 383.4 52.1835 382.81 53.4935 382.81C54.1635 382.81 54.6135 382.9 55.0835 383.03V382.85C55.0835 381.92 54.5135 381.44 53.5435 381.44C52.9335 381.44 52.4535 381.59 51.9735 381.82L51.7435 381.19C52.3135 380.92 52.8635 380.76 53.6235 380.76C54.3535 380.76 54.9135 380.95 55.2935 381.33C55.6435 381.68 55.8235 382.19 55.8235 382.84V386H55.0835V385.22C54.7235 385.69 54.1335 386.11 53.2135 386.11ZM53.3635 385.5C54.3235 385.5 55.0935 384.92 55.0935 384.1V383.6C54.7035 383.49 54.2135 383.38 53.5735 383.38C52.6035 383.38 52.0635 383.8 52.0635 384.45V384.47C52.0635 385.12 52.6735 385.5 53.3635 385.5ZM59.1457 386.09C58.3057 386.09 57.6857 385.68 57.6857 384.63V381.51H56.9657V380.83H57.6857V379.27H58.4557V380.83H60.0957V381.51H58.4557V384.53C58.4557 385.17 58.8057 385.39 59.3257 385.39C59.5957 385.39 59.8057 385.34 60.0757 385.21V385.87C59.8057 386.02 59.5157 386.09 59.1457 386.09ZM66.6267 386.11C65.3867 386.11 64.1567 385.13 64.1567 383.43V383.41C64.1567 381.73 65.3867 380.72 66.6267 380.72C67.5867 380.72 68.2067 381.23 68.6067 381.82V378.7H69.3767V386H68.6067V384.96C68.1767 385.58 67.5867 386.11 66.6267 386.11ZM66.7667 385.42C67.7267 385.42 68.6367 384.61 68.6367 383.42V383.4C68.6367 382.21 67.7267 381.41 66.7667 381.41C65.7667 381.41 64.9467 382.15 64.9467 383.4V383.42C64.9467 384.65 65.7767 385.42 66.7667 385.42ZM72.6373 386.11C71.6773 386.11 70.7073 385.57 70.7073 384.5V384.48C70.7073 383.4 71.6073 382.81 72.9173 382.81C73.5873 382.81 74.0373 382.9 74.5073 383.03V382.85C74.5073 381.92 73.9373 381.44 72.9673 381.44C72.3573 381.44 71.8773 381.59 71.3973 381.82L71.1673 381.19C71.7373 380.92 72.2873 380.76 73.0473 380.76C73.7773 380.76 74.3373 380.95 74.7173 381.33C75.0673 381.68 75.2473 382.19 75.2473 382.84V386H74.5073V385.22C74.1473 385.69 73.5573 386.11 72.6373 386.11ZM72.7873 385.5C73.7473 385.5 74.5173 384.92 74.5173 384.1V383.6C74.1273 383.49 73.6373 383.38 72.9973 383.38C72.0273 383.38 71.4873 383.8 71.4873 384.45V384.47C71.4873 385.12 72.0973 385.5 72.7873 385.5ZM76.8883 386V380.83H77.6583V381.73C78.0083 381.17 78.5383 380.72 79.4283 380.72C80.6683 380.72 81.4083 381.56 81.4083 382.79V386H80.6383V382.98C80.6383 382.02 80.1283 381.42 79.2083 381.42C78.3183 381.42 77.6583 382.07 77.6583 383.04V386H76.8883ZM86.0485 386V378.7H86.8185V383.74L89.6085 380.83H90.5685L88.3985 383.05L90.6385 386H89.7185L87.8685 383.59L86.8185 384.65V386H86.0485ZM93.7479 386.12C92.3379 386.12 91.1679 385.03 91.1679 383.43V383.41C91.1679 381.92 92.2079 380.72 93.6479 380.72C95.1779 380.72 96.0579 381.94 96.0579 383.45C96.0579 383.56 96.0579 383.61 96.0479 383.7H91.9479C92.0579 384.82 92.8479 385.45 93.7679 385.45C94.4879 385.45 94.9679 385.16 95.3979 384.72L95.8779 385.15C95.3579 385.74 94.7379 386.12 93.7479 386.12ZM91.9479 383.13H95.2779C95.1979 382.2 94.6679 381.37 93.6279 381.37C92.7179 381.37 92.0579 382.13 91.9479 383.13ZM99.1359 386.09C98.2959 386.09 97.6759 385.68 97.6759 384.63V381.51H96.9559V380.83H97.6759V379.27H98.4459V380.83H100.086V381.51H98.4459V384.53C98.4459 385.17 98.7959 385.39 99.3159 385.39C99.5859 385.39 99.7959 385.34 100.066 385.21V385.87C99.7959 386.02 99.5059 386.09 99.1359 386.09ZM103.562 386.12C102.152 386.12 100.982 385.03 100.982 383.43V383.41C100.982 381.92 102.022 380.72 103.462 380.72C104.992 380.72 105.872 381.94 105.872 383.45C105.872 383.56 105.872 383.61 105.862 383.7H101.762C101.872 384.82 102.662 385.45 103.582 385.45C104.302 385.45 104.782 385.16 105.212 384.72L105.692 385.15C105.172 385.74 104.552 386.12 103.562 386.12ZM101.762 383.13H105.092C105.012 382.2 104.482 381.37 103.442 381.37C102.532 381.37 101.872 382.13 101.762 383.13ZM107.22 386V380.83H107.99V381.73C108.34 381.17 108.87 380.72 109.76 380.72C111 380.72 111.74 381.56 111.74 382.79V386H110.97V382.98C110.97 382.02 110.46 381.42 109.54 381.42C108.65 381.42 107.99 382.07 107.99 383.04V386H107.22ZM115.112 386.09C114.272 386.09 113.652 385.68 113.652 384.63V381.51H112.932V380.83H113.652V379.27H114.422V380.83H116.062V381.51H114.422V384.53C114.422 385.17 114.772 385.39 115.292 385.39C115.562 385.39 115.772 385.34 116.042 385.21V385.87C115.772 386.02 115.482 386.09 115.112 386.09ZM119.325 386.11C118.085 386.11 117.345 385.27 117.345 384.04V380.83H118.115V383.85C118.115 384.81 118.625 385.41 119.545 385.41C120.425 385.41 121.095 384.76 121.095 383.79V380.83H121.855V386H121.095V385.1C120.745 385.66 120.215 386.11 119.325 386.11ZM125.128 386.11C124.168 386.11 123.198 385.57 123.198 384.5V384.48C123.198 383.4 124.098 382.81 125.408 382.81C126.078 382.81 126.528 382.9 126.998 383.03V382.85C126.998 381.92 126.428 381.44 125.458 381.44C124.848 381.44 124.368 381.59 123.888 381.82L123.658 381.19C124.228 380.92 124.778 380.76 125.538 380.76C126.268 380.76 126.828 380.95 127.208 381.33C127.558 381.68 127.738 382.19 127.738 382.84V386H126.998V385.22C126.638 385.69 126.048 386.11 125.128 386.11ZM125.278 385.5C126.238 385.5 127.008 384.92 127.008 384.1V383.6C126.618 383.49 126.128 383.38 125.488 383.38C124.518 383.38 123.978 383.8 123.978 384.45V384.47C123.978 385.12 124.588 385.5 125.278 385.5ZM129.379 386V380.83H130.149V381.73C130.499 381.17 131.029 380.72 131.919 380.72C133.159 380.72 133.899 381.56 133.899 382.79V386H133.129V382.98C133.129 382.02 132.619 381.42 131.699 381.42C130.809 381.42 130.149 382.07 130.149 383.04V386H129.379Z" fill="black"/>
<rect x="16" y="424" width="476" height="32" fill="#D9D9D9"/>
<path d="M32.7093 444.1C31.5893 444.1 30.6893 443.74 29.8493 442.98L30.3393 442.4C31.0693 443.07 31.7693 443.39 32.7393 443.39C33.6893 443.39 34.2993 442.89 34.2993 442.2V442.18C34.2993 441.53 33.9493 441.17 32.4793 440.85C30.8693 440.5 30.1293 439.98 30.1293 438.83V438.81C30.1293 437.72 31.0993 436.9 32.4293 436.9C33.4593 436.9 34.1693 437.19 34.8893 437.76L34.4293 438.37C33.7793 437.84 33.1293 437.61 32.4093 437.61C31.4893 437.61 30.9193 438.1 30.9193 438.74V438.76C30.9193 439.42 31.2693 439.8 32.8193 440.12C34.3793 440.47 35.0993 441.03 35.0993 442.1V442.12C35.0993 443.32 34.0993 444.1 32.7093 444.1ZM38.6393 443.14L40.2993 438.83H41.1193L38.9493 444.17C38.5093 445.24 37.9993 445.63 37.2293 445.63C36.7993 445.63 36.4793 445.54 36.1293 445.37L36.3893 444.76C36.6393 444.89 36.8693 444.95 37.1993 444.95C37.6693 444.95 37.9493 444.71 38.2593 443.98L35.9093 438.83H36.7593L38.6393 443.14ZM43.6236 444.11C42.6636 444.11 41.6936 443.57 41.6936 442.5V442.48C41.6936 441.4 42.5936 440.81 43.9036 440.81C44.5736 440.81 45.0236 440.9 45.4936 441.03V440.85C45.4936 439.92 44.9236 439.44 43.9536 439.44C43.3436 439.44 42.8636 439.59 42.3836 439.82L42.1536 439.19C42.7236 438.92 43.2736 438.76 44.0336 438.76C44.7636 438.76 45.3236 438.95 45.7036 439.33C46.0536 439.68 46.2336 440.19 46.2336 440.84V444H45.4936V443.22C45.1336 443.69 44.5436 444.11 43.6236 444.11ZM43.7736 443.5C44.7336 443.5 45.5036 442.92 45.5036 442.1V441.6C45.1136 441.49 44.6236 441.38 43.9836 441.38C43.0136 441.38 42.4736 441.8 42.4736 442.45V442.47C42.4736 443.12 43.0836 443.5 43.7736 443.5ZM47.8746 444V438.83H48.6446V440.18C49.0246 439.32 49.7746 438.71 50.7546 438.74V439.57H50.6946C49.5646 439.57 48.6446 440.38 48.6446 441.94V444H47.8746ZM53.2135 444.11C52.2535 444.11 51.2835 443.57 51.2835 442.5V442.48C51.2835 441.4 52.1835 440.81 53.4935 440.81C54.1635 440.81 54.6135 440.9 55.0835 441.03V440.85C55.0835 439.92 54.5135 439.44 53.5435 439.44C52.9335 439.44 52.4535 439.59 51.9735 439.82L51.7435 439.19C52.3135 438.92 52.8635 438.76 53.6235 438.76C54.3535 438.76 54.9135 438.95 55.2935 439.33C55.6435 439.68 55.8235 440.19 55.8235 440.84V444H55.0835V443.22C54.7235 443.69 54.1335 444.11 53.2135 444.11ZM53.3635 443.5C54.3235 443.5 55.0935 442.92 55.0935 442.1V441.6C54.7035 441.49 54.2135 441.38 53.5735 441.38C52.6035 441.38 52.0635 441.8 52.0635 442.45V442.47C52.0635 443.12 52.6735 443.5 53.3635 443.5ZM59.1457 444.09C58.3057 444.09 57.6857 443.68 57.6857 442.63V439.51H56.9657V438.83H57.6857V437.27H58.4557V438.83H60.0957V439.51H58.4557V442.53C58.4557 443.17 58.8057 443.39 59.3257 443.39C59.5957 443.39 59.8057 443.34 60.0757 443.21V443.87C59.8057 444.02 59.5157 444.09 59.1457 444.09ZM66.6267 444.11C65.3867 444.11 64.1567 443.13 64.1567 441.43V441.41C64.1567 439.73 65.3867 438.72 66.6267 438.72C67.5867 438.72 68.2067 439.23 68.6067 439.82V436.7H69.3767V444H68.6067V442.96C68.1767 443.58 67.5867 444.11 66.6267 444.11ZM66.7667 443.42C67.7267 443.42 68.6367 442.61 68.6367 441.42V441.4C68.6367 440.21 67.7267 439.41 66.7667 439.41C65.7667 439.41 64.9467 440.15 64.9467 441.4V441.42C64.9467 442.65 65.7767 443.42 66.7667 443.42ZM72.6373 444.11C71.6773 444.11 70.7073 443.57 70.7073 442.5V442.48C70.7073 441.4 71.6073 440.81 72.9173 440.81C73.5873 440.81 74.0373 440.9 74.5073 441.03V440.85C74.5073 439.92 73.9373 439.44 72.9673 439.44C72.3573 439.44 71.8773 439.59 71.3973 439.82L71.1673 439.19C71.7373 438.92 72.2873 438.76 73.0473 438.76C73.7773 438.76 74.3373 438.95 74.7173 439.33C75.0673 439.68 75.2473 440.19 75.2473 440.84V444H74.5073V443.22C74.1473 443.69 73.5573 444.11 72.6373 444.11ZM72.7873 443.5C73.7473 443.5 74.5173 442.92 74.5173 442.1V441.6C74.1273 441.49 73.6373 441.38 72.9973 441.38C72.0273 441.38 71.4873 441.8 71.4873 442.45V442.47C71.4873 443.12 72.0973 443.5 72.7873 443.5ZM76.8883 444V438.83H77.6583V439.73C78.0083 439.17 78.5383 438.72 79.4283 438.72C80.6683 438.72 81.4083 439.56 81.4083 440.79V444H80.6383V440.98C80.6383 440.02 80.1283 439.42 79.2083 439.42C78.3183 439.42 77.6583 440.07 77.6583 441.04V444H76.8883ZM86.0485 444V436.7H86.8185V441.74L89.6085 438.83H90.5685L88.3985 441.05L90.6385 444H89.7185L87.8685 441.59L86.8185 442.65V444H86.0485ZM93.7479 444.12C92.3379 444.12 91.1679 443.03 91.1679 441.43V441.41C91.1679 439.92 92.2079 438.72 93.6479 438.72C95.1779 438.72 96.0579 439.94 96.0579 441.45C96.0579 441.56 96.0579 441.61 96.0479 441.7H91.9479C92.0579 442.82 92.8479 443.45 93.7679 443.45C94.4879 443.45 94.9679 443.16 95.3979 442.72L95.8779 443.15C95.3579 443.74 94.7379 444.12 93.7479 444.12ZM91.9479 441.13H95.2779C95.1979 440.2 94.6679 439.37 93.6279 439.37C92.7179 439.37 92.0579 440.13 91.9479 441.13ZM99.1359 444.09C98.2959 444.09 97.6759 443.68 97.6759 442.63V439.51H96.9559V438.83H97.6759V437.27H98.4459V438.83H100.086V439.51H98.4459V442.53C98.4459 443.17 98.7959 443.39 99.3159 443.39C99.5859 443.39 99.7959 443.34 100.066 443.21V443.87C99.7959 444.02 99.5059 444.09 99.1359 444.09ZM103.562 444.12C102.152 444.12 100.982 443.03 100.982 441.43V441.41C100.982 439.92 102.022 438.72 103.462 438.72C104.992 438.72 105.872 439.94 105.872 441.45C105.872 441.56 105.872 441.61 105.862 441.7H101.762C101.872 442.82 102.662 443.45 103.582 443.45C104.302 443.45 104.782 443.16 105.212 442.72L105.692 443.15C105.172 443.74 104.552 444.12 103.562 444.12ZM101.762 441.13H105.092C105.012 440.2 104.482 439.37 103.442 439.37C102.532 439.37 101.872 440.13 101.762 441.13ZM107.22 444V438.83H107.99V439.73C108.34 439.17 108.87 438.72 109.76 438.72C111 438.72 111.74 439.56 111.74 440.79V444H110.97V440.98C110.97 440.02 110.46 439.42 109.54 439.42C108.65 439.42 107.99 440.07 107.99 441.04V444H107.22ZM115.112 444.09C114.272 444.09 113.652 443.68 113.652 442.63V439.51H112.932V438.83H113.652V437.27H114.422V438.83H116.062V439.51H114.422V442.53C114.422 443.17 114.772 443.39 115.292 443.39C115.562 443.39 115.772 443.34 116.042 443.21V443.87C115.772 444.02 115.482 444.09 115.112 444.09ZM119.325 444.11C118.085 444.11 117.345 443.27 117.345 442.04V438.83H118.115V441.85C118.115 442.81 118.625 443.41 119.545 443.41C120.425 443.41 121.095 442.76 121.095 441.79V438.83H121.855V444H121.095V443.1C120.745 443.66 120.215 444.11 119.325 444.11ZM125.128 444.11C124.168 444.11 123.198 443.57 123.198 442.5V442.48C123.198 441.4 124.098 440.81 125.408 440.81C126.078 440.81 126.528 440.9 126.998 441.03V440.85C126.998 439.92 126.428 439.44 125.458 439.44C124.848 439.44 124.368 439.59 123.888 439.82L123.658 439.19C124.228 438.92 124.778 438.76 125.538 438.76C126.268 438.76 126.828 438.95 127.208 439.33C127.558 439.68 127.738 440.19 127.738 440.84V444H126.998V443.22C126.638 443.69 126.048 444.11 125.128 444.11ZM125.278 443.5C126.238 443.5 127.008 442.92 127.008 442.1V441.6C126.618 441.49 126.128 441.38 125.488 441.38C124.518 441.38 123.978 441.8 123.978 442.45V442.47C123.978 443.12 124.588 443.5 125.278 443.5ZM129.379 444V438.83H130.149V439.73C130.499 439.17 131.029 438.72 131.919 438.72C133.159 438.72 133.899 439.56 133.899 440.79V444H133.129V440.98C133.129 440.02 132.619 439.42 131.699 439.42C130.809 439.42 130.149 440.07 130.149 441.04V444H129.379Z" fill="black"/>
<rect x="16" y="482" width="476" height="32" fill="#D9D9D9"/>
<path d="M32.7093 502.1C31.5893 502.1 30.6893 501.74 29.8493 500.98L30.3393 500.4C31.0693 501.07 31.7693 501.39 32.7393 501.39C33.6893 501.39 34.2993 500.89 34.2993 500.2V500.18C34.2993 499.53 33.9493 499.17 32.4793 498.85C30.8693 498.5 30.1293 497.98 30.1293 496.83V496.81C30.1293 495.72 31.0993 494.9 32.4293 494.9C33.4593 494.9 34.1693 495.19 34.8893 495.76L34.4293 496.37C33.7793 495.84 33.1293 495.61 32.4093 495.61C31.4893 495.61 30.9193 496.1 30.9193 496.74V496.76C30.9193 497.42 31.2693 497.8 32.8193 498.12C34.3793 498.47 35.0993 499.03 35.0993 500.1V500.12C35.0993 501.32 34.0993 502.1 32.7093 502.1ZM38.6393 501.14L40.2993 496.83H41.1193L38.9493 502.17C38.5093 503.24 37.9993 503.63 37.2293 503.63C36.7993 503.63 36.4793 503.54 36.1293 503.37L36.3893 502.76C36.6393 502.89 36.8693 502.95 37.1993 502.95C37.6693 502.95 37.9493 502.71 38.2593 501.98L35.9093 496.83H36.7593L38.6393 501.14ZM43.6236 502.11C42.6636 502.11 41.6936 501.57 41.6936 500.5V500.48C41.6936 499.4 42.5936 498.81 43.9036 498.81C44.5736 498.81 45.0236 498.9 45.4936 499.03V498.85C45.4936 497.92 44.9236 497.44 43.9536 497.44C43.3436 497.44 42.8636 497.59 42.3836 497.82L42.1536 497.19C42.7236 496.92 43.2736 496.76 44.0336 496.76C44.7636 496.76 45.3236 496.95 45.7036 497.33C46.0536 497.68 46.2336 498.19 46.2336 498.84V502H45.4936V501.22C45.1336 501.69 44.5436 502.11 43.6236 502.11ZM43.7736 501.5C44.7336 501.5 45.5036 500.92 45.5036 500.1V499.6C45.1136 499.49 44.6236 499.38 43.9836 499.38C43.0136 499.38 42.4736 499.8 42.4736 500.45V500.47C42.4736 501.12 43.0836 501.5 43.7736 501.5ZM47.8746 502V496.83H48.6446V498.18C49.0246 497.32 49.7746 496.71 50.7546 496.74V497.57H50.6946C49.5646 497.57 48.6446 498.38 48.6446 499.94V502H47.8746ZM53.2135 502.11C52.2535 502.11 51.2835 501.57 51.2835 500.5V500.48C51.2835 499.4 52.1835 498.81 53.4935 498.81C54.1635 498.81 54.6135 498.9 55.0835 499.03V498.85C55.0835 497.92 54.5135 497.44 53.5435 497.44C52.9335 497.44 52.4535 497.59 51.9735 497.82L51.7435 497.19C52.3135 496.92 52.8635 496.76 53.6235 496.76C54.3535 496.76 54.9135 496.95 55.2935 497.33C55.6435 497.68 55.8235 498.19 55.8235 498.84V502H55.0835V501.22C54.7235 501.69 54.1335 502.11 53.2135 502.11ZM53.3635 501.5C54.3235 501.5 55.0935 500.92 55.0935 500.1V499.6C54.7035 499.49 54.2135 499.38 53.5735 499.38C52.6035 499.38 52.0635 499.8 52.0635 500.45V500.47C52.0635 501.12 52.6735 501.5 53.3635 501.5ZM59.1457 502.09C58.3057 502.09 57.6857 501.68 57.6857 500.63V497.51H56.9657V496.83H57.6857V495.27H58.4557V496.83H60.0957V497.51H58.4557V500.53C58.4557 501.17 58.8057 501.39 59.3257 501.39C59.5957 501.39 59.8057 501.34 60.0757 501.21V501.87C59.8057 502.02 59.5157 502.09 59.1457 502.09ZM66.6267 502.11C65.3867 502.11 64.1567 501.13 64.1567 499.43V499.41C64.1567 497.73 65.3867 496.72 66.6267 496.72C67.5867 496.72 68.2067 497.23 68.6067 497.82V494.7H69.3767V502H68.6067V500.96C68.1767 501.58 67.5867 502.11 66.6267 502.11ZM66.7667 501.42C67.7267 501.42 68.6367 500.61 68.6367 499.42V499.4C68.6367 498.21 67.7267 497.41 66.7667 497.41C65.7667 497.41 64.9467 498.15 64.9467 499.4V499.42C64.9467 500.65 65.7767 501.42 66.7667 501.42ZM72.6373 502.11C71.6773 502.11 70.7073 501.57 70.7073 500.5V500.48C70.7073 499.4 71.6073 498.81 72.9173 498.81C73.5873 498.81 74.0373 498.9 74.5073 499.03V498.85C74.5073 497.92 73.9373 497.44 72.9673 497.44C72.3573 497.44 71.8773 497.59 71.3973 497.82L71.1673 497.19C71.7373 496.92 72.2873 496.76 73.0473 496.76C73.7773 496.76 74.3373 496.95 74.7173 497.33C75.0673 497.68 75.2473 498.19 75.2473 498.84V502H74.5073V501.22C74.1473 501.69 73.5573 502.11 72.6373 502.11ZM72.7873 501.5C73.7473 501.5 74.5173 500.92 74.5173 500.1V499.6C74.1273 499.49 73.6373 499.38 72.9973 499.38C72.0273 499.38 71.4873 499.8 71.4873 500.45V500.47C71.4873 501.12 72.0973 501.5 72.7873 501.5ZM76.8883 502V496.83H77.6583V497.73C78.0083 497.17 78.5383 496.72 79.4283 496.72C80.6683 496.72 81.4083 497.56 81.4083 498.79V502H80.6383V498.98C80.6383 498.02 80.1283 497.42 79.2083 497.42C78.3183 497.42 77.6583 498.07 77.6583 499.04V502H76.8883ZM86.0485 502V494.7H86.8185V499.74L89.6085 496.83H90.5685L88.3985 499.05L90.6385 502H89.7185L87.8685 499.59L86.8185 500.65V502H86.0485ZM93.7479 502.12C92.3379 502.12 91.1679 501.03 91.1679 499.43V499.41C91.1679 497.92 92.2079 496.72 93.6479 496.72C95.1779 496.72 96.0579 497.94 96.0579 499.45C96.0579 499.56 96.0579 499.61 96.0479 499.7H91.9479C92.0579 500.82 92.8479 501.45 93.7679 501.45C94.4879 501.45 94.9679 501.16 95.3979 500.72L95.8779 501.15C95.3579 501.74 94.7379 502.12 93.7479 502.12ZM91.9479 499.13H95.2779C95.1979 498.2 94.6679 497.37 93.6279 497.37C92.7179 497.37 92.0579 498.13 91.9479 499.13ZM99.1359 502.09C98.2959 502.09 97.6759 501.68 97.6759 500.63V497.51H96.9559V496.83H97.6759V495.27H98.4459V496.83H100.086V497.51H98.4459V500.53C98.4459 501.17 98.7959 501.39 99.3159 501.39C99.5859 501.39 99.7959 501.34 100.066 501.21V501.87C99.7959 502.02 99.5059 502.09 99.1359 502.09ZM103.562 502.12C102.152 502.12 100.982 501.03 100.982 499.43V499.41C100.982 497.92 102.022 496.72 103.462 496.72C104.992 496.72 105.872 497.94 105.872 499.45C105.872 499.56 105.872 499.61 105.862 499.7H101.762C101.872 500.82 102.662 501.45 103.582 501.45C104.302 501.45 104.782 501.16 105.212 500.72L105.692 501.15C105.172 501.74 104.552 502.12 103.562 502.12ZM101.762 499.13H105.092C105.012 498.2 104.482 497.37 103.442 497.37C102.532 497.37 101.872 498.13 101.762 499.13ZM107.22 502V496.83H107.99V497.73C108.34 497.17 108.87 496.72 109.76 496.72C111 496.72 111.74 497.56 111.74 498.79V502H110.97V498.98C110.97 498.02 110.46 497.42 109.54 497.42C108.65 497.42 107.99 498.07 107.99 499.04V502H107.22ZM115.112 502.09C114.272 502.09 113.652 501.68 113.652 500.63V497.51H112.932V496.83H113.652V495.27H114.422V496.83H116.062V497.51H114.422V500.53C114.422 501.17 114.772 501.39 115.292 501.39C115.562 501.39 115.772 501.34 116.042 501.21V501.87C115.772 502.02 115.482 502.09 115.112 502.09ZM119.325 502.11C118.085 502.11 117.345 501.27 117.345 500.04V496.83H118.115V499.85C118.115 500.81 118.625 501.41 119.545 501.41C120.425 501.41 121.095 500.76 121.095 499.79V496.83H121.855V502H121.095V501.1C120.745 501.66 120.215 502.11 119.325 502.11ZM125.128 502.11C124.168 502.11 123.198 501.57 123.198 500.5V500.48C123.198 499.4 124.098 498.81 125.408 498.81C126.078 498.81 126.528 498.9 126.998 499.03V498.85C126.998 497.92 126.428 497.44 125.458 497.44C124.848 497.44 124.368 497.59 123.888 497.82L123.658 497.19C124.228 496.92 124.778 496.76 125.538 496.76C126.268 496.76 126.828 496.95 127.208 497.33C127.558 497.68 127.738 498.19 127.738 498.84V502H126.998V501.22C126.638 501.69 126.048 502.11 125.128 502.11ZM125.278 501.5C126.238 501.5 127.008 500.92 127.008 500.1V499.6C126.618 499.49 126.128 499.38 125.488 499.38C124.518 499.38 123.978 499.8 123.978 500.45V500.47C123.978 501.12 124.588 501.5 125.278 501.5ZM129.379 502V496.83H130.149V497.73C130.499 497.17 131.029 496.72 131.919 496.72C133.159 496.72 133.899 497.56 133.899 498.79V502H133.129V498.98C133.129 498.02 132.619 497.42 131.699 497.42C130.809 497.42 130.149 498.07 130.149 499.04V502H129.379Z" fill="black"/>
<rect x="16" y="540" width="476" height="32" fill="#D9D9D9"/>
<path d="M32.7093 560.1C31.5893 560.1 30.6893 559.74 29.8493 558.98L30.3393 558.4C31.0693 559.07 31.7693 559.39 32.7393 559.39C33.6893 559.39 34.2993 558.89 34.2993 558.2V558.18C34.2993 557.53 33.9493 557.17 32.4793 556.85C30.8693 556.5 30.1293 555.98 30.1293 554.83V554.81C30.1293 553.72 31.0993 552.9 32.4293 552.9C33.4593 552.9 34.1693 553.19 34.8893 553.76L34.4293 554.37C33.7793 553.84 33.1293 553.61 32.4093 553.61C31.4893 553.61 30.9193 554.1 30.9193 554.74V554.76C30.9193 555.42 31.2693 555.8 32.8193 556.12C34.3793 556.47 35.0993 557.03 35.0993 558.1V558.12C35.0993 559.32 34.0993 560.1 32.7093 560.1ZM38.6393 559.14L40.2993 554.83H41.1193L38.9493 560.17C38.5093 561.24 37.9993 561.63 37.2293 561.63C36.7993 561.63 36.4793 561.54 36.1293 561.37L36.3893 560.76C36.6393 560.89 36.8693 560.95 37.1993 560.95C37.6693 560.95 37.9493 560.71 38.2593 559.98L35.9093 554.83H36.7593L38.6393 559.14ZM43.6236 560.11C42.6636 560.11 41.6936 559.57 41.6936 558.5V558.48C41.6936 557.4 42.5936 556.81 43.9036 556.81C44.5736 556.81 45.0236 556.9 45.4936 557.03V556.85C45.4936 555.92 44.9236 555.44 43.9536 555.44C43.3436 555.44 42.8636 555.59 42.3836 555.82L42.1536 555.19C42.7236 554.92 43.2736 554.76 44.0336 554.76C44.7636 554.76 45.3236 554.95 45.7036 555.33C46.0536 555.68 46.2336 556.19 46.2336 556.84V560H45.4936V559.22C45.1336 559.69 44.5436 560.11 43.6236 560.11ZM43.7736 559.5C44.7336 559.5 45.5036 558.92 45.5036 558.1V557.6C45.1136 557.49 44.6236 557.38 43.9836 557.38C43.0136 557.38 42.4736 557.8 42.4736 558.45V558.47C42.4736 559.12 43.0836 559.5 43.7736 559.5ZM47.8746 560V554.83H48.6446V556.18C49.0246 555.32 49.7746 554.71 50.7546 554.74V555.57H50.6946C49.5646 555.57 48.6446 556.38 48.6446 557.94V560H47.8746ZM53.2135 560.11C52.2535 560.11 51.2835 559.57 51.2835 558.5V558.48C51.2835 557.4 52.1835 556.81 53.4935 556.81C54.1635 556.81 54.6135 556.9 55.0835 557.03V556.85C55.0835 555.92 54.5135 555.44 53.5435 555.44C52.9335 555.44 52.4535 555.59 51.9735 555.82L51.7435 555.19C52.3135 554.92 52.8635 554.76 53.6235 554.76C54.3535 554.76 54.9135 554.95 55.2935 555.33C55.6435 555.68 55.8235 556.19 55.8235 556.84V560H55.0835V559.22C54.7235 559.69 54.1335 560.11 53.2135 560.11ZM53.3635 559.5C54.3235 559.5 55.0935 558.92 55.0935 558.1V557.6C54.7035 557.49 54.2135 557.38 53.5735 557.38C52.6035 557.38 52.0635 557.8 52.0635 558.45V558.47C52.0635 559.12 52.6735 559.5 53.3635 559.5ZM59.1457 560.09C58.3057 560.09 57.6857 559.68 57.6857 558.63V555.51H56.9657V554.83H57.6857V553.27H58.4557V554.83H60.0957V555.51H58.4557V558.53C58.4557 559.17 58.8057 559.39 59.3257 559.39C59.5957 559.39 59.8057 559.34 60.0757 559.21V559.87C59.8057 560.02 59.5157 560.09 59.1457 560.09ZM66.6267 560.11C65.3867 560.11 64.1567 559.13 64.1567 557.43V557.41C64.1567 555.73 65.3867 554.72 66.6267 554.72C67.5867 554.72 68.2067 555.23 68.6067 555.82V552.7H69.3767V560H68.6067V558.96C68.1767 559.58 67.5867 560.11 66.6267 560.11ZM66.7667 559.42C67.7267 559.42 68.6367 558.61 68.6367 557.42V557.4C68.6367 556.21 67.7267 555.41 66.7667 555.41C65.7667 555.41 64.9467 556.15 64.9467 557.4V557.42C64.9467 558.65 65.7767 559.42 66.7667 559.42ZM72.6373 560.11C71.6773 560.11 70.7073 559.57 70.7073 558.5V558.48C70.7073 557.4 71.6073 556.81 72.9173 556.81C73.5873 556.81 74.0373 556.9 74.5073 557.03V556.85C74.5073 555.92 73.9373 555.44 72.9673 555.44C72.3573 555.44 71.8773 555.59 71.3973 555.82L71.1673 555.19C71.7373 554.92 72.2873 554.76 73.0473 554.76C73.7773 554.76 74.3373 554.95 74.7173 555.33C75.0673 555.68 75.2473 556.19 75.2473 556.84V560H74.5073V559.22C74.1473 559.69 73.5573 560.11 72.6373 560.11ZM72.7873 559.5C73.7473 559.5 74.5173 558.92 74.5173 558.1V557.6C74.1273 557.49 73.6373 557.38 72.9973 557.38C72.0273 557.38 71.4873 557.8 71.4873 558.45V558.47C71.4873 559.12 72.0973 559.5 72.7873 559.5ZM76.8883 560V554.83H77.6583V555.73C78.0083 555.17 78.5383 554.72 79.4283 554.72C80.6683 554.72 81.4083 555.56 81.4083 556.79V560H80.6383V556.98C80.6383 556.02 80.1283 555.42 79.2083 555.42C78.3183 555.42 77.6583 556.07 77.6583 557.04V560H76.8883ZM86.0485 560V552.7H86.8185V557.74L89.6085 554.83H90.5685L88.3985 557.05L90.6385 560H89.7185L87.8685 557.59L86.8185 558.65V560H86.0485ZM93.7479 560.12C92.3379 560.12 91.1679 559.03 91.1679 557.43V557.41C91.1679 555.92 92.2079 554.72 93.6479 554.72C95.1779 554.72 96.0579 555.94 96.0579 557.45C96.0579 557.56 96.0579 557.61 96.0479 557.7H91.9479C92.0579 558.82 92.8479 559.45 93.7679 559.45C94.4879 559.45 94.9679 559.16 95.3979 558.72L95.8779 559.15C95.3579 559.74 94.7379 560.12 93.7479 560.12ZM91.9479 557.13H95.2779C95.1979 556.2 94.6679 555.37 93.6279 555.37C92.7179 555.37 92.0579 556.13 91.9479 557.13ZM99.1359 560.09C98.2959 560.09 97.6759 559.68 97.6759 558.63V555.51H96.9559V554.83H97.6759V553.27H98.4459V554.83H100.086V555.51H98.4459V558.53C98.4459 559.17 98.7959 559.39 99.3159 559.39C99.5859 559.39 99.7959 559.34 100.066 559.21V559.87C99.7959 560.02 99.5059 560.09 99.1359 560.09ZM103.562 560.12C102.152 560.12 100.982 559.03 100.982 557.43V557.41C100.982 555.92 102.022 554.72 103.462 554.72C104.992 554.72 105.872 555.94 105.872 557.45C105.872 557.56 105.872 557.61 105.862 557.7H101.762C101.872 558.82 102.662 559.45 103.582 559.45C104.302 559.45 104.782 559.16 105.212 558.72L105.692 559.15C105.172 559.74 104.552 560.12 103.562 560.12ZM101.762 557.13H105.092C105.012 556.2 104.482 555.37 103.442 555.37C102.532 555.37 101.872 556.13 101.762 557.13ZM107.22 560V554.83H107.99V555.73C108.34 555.17 108.87 554.72 109.76 554.72C111 554.72 111.74 555.56 111.74 556.79V560H110.97V556.98C110.97 556.02 110.46 555.42 109.54 555.42C108.65 555.42 107.99 556.07 107.99 557.04V560H107.22ZM115.112 560.09C114.272 560.09 113.652 559.68 113.652 558.63V555.51H112.932V554.83H113.652V553.27H114.422V554.83H116.062V555.51H114.422V558.53C114.422 559.17 114.772 559.39 115.292 559.39C115.562 559.39 115.772 559.34 116.042 559.21V559.87C115.772 560.02 115.482 560.09 115.112 560.09ZM119.325 560.11C118.085 560.11 117.345 559.27 117.345 558.04V554.83H118.115V557.85C118.115 558.81 118.625 559.41 119.545 559.41C120.425 559.41 121.095 558.76 121.095 557.79V554.83H121.855V560H121.095V559.1C120.745 559.66 120.215 560.11 119.325 560.11ZM125.128 560.11C124.168 560.11 123.198 559.57 123.198 558.5V558.48C123.198 557.4 124.098 556.81 125.408 556.81C126.078 556.81 126.528 556.9 126.998 557.03V556.85C126.998 555.92 126.428 555.44 125.458 555.44C124.848 555.44 124.368 555.59 123.888 555.82L123.658 555.19C124.228 554.92 124.778 554.76 125.538 554.76C126.268 554.76 126.828 554.95 127.208 555.33C127.558 555.68 127.738 556.19 127.738 556.84V560H126.998V559.22C126.638 559.69 126.048 560.11 125.128 560.11ZM125.278 559.5C126.238 559.5 127.008 558.92 127.008 558.1V557.6C126.618 557.49 126.128 557.38 125.488 557.38C124.518 557.38 123.978 557.8 123.978 558.45V558.47C123.978 559.12 124.588 559.5 125.278 559.5ZM129.379 560V554.83H130.149V555.73C130.499 555.17 131.029 554.72 131.919 554.72C133.159 554.72 133.899 555.56 133.899 556.79V560H133.129V556.98C133.129 556.02 132.619 555.42 131.699 555.42C130.809 555.42 130.149 556.07 130.149 557.04V560H129.379Z" fill="black"/>
<rect x="16" y="598" width="476" height="32" fill="#D9D9D9"/>
<path d="M32.7093 618.1C31.5893 618.1 30.6893 617.74 29.8493 616.98L30.3393 616.4C31.0693 617.07 31.7693 617.39 32.7393 617.39C33.6893 617.39 34.2993 616.89 34.2993 616.2V616.18C34.2993 615.53 33.9493 615.17 32.4793 614.85C30.8693 614.5 30.1293 613.98 30.1293 612.83V612.81C30.1293 611.72 31.0993 610.9 32.4293 610.9C33.4593 610.9 34.1693 611.19 34.8893 611.76L34.4293 612.37C33.7793 611.84 33.1293 611.61 32.4093 611.61C31.4893 611.61 30.9193 612.1 30.9193 612.74V612.76C30.9193 613.42 31.2693 613.8 32.8193 614.12C34.3793 614.47 35.0993 615.03 35.0993 616.1V616.12C35.0993 617.32 34.0993 618.1 32.7093 618.1ZM38.6393 617.14L40.2993 612.83H41.1193L38.9493 618.17C38.5093 619.24 37.9993 619.63 37.2293 619.63C36.7993 619.63 36.4793 619.54 36.1293 619.37L36.3893 618.76C36.6393 618.89 36.8693 618.95 37.1993 618.95C37.6693 618.95 37.9493 618.71 38.2593 617.98L35.9093 612.83H36.7593L38.6393 617.14ZM43.6236 618.11C42.6636 618.11 41.6936 617.57 41.6936 616.5V616.48C41.6936 615.4 42.5936 614.81 43.9036 614.81C44.5736 614.81 45.0236 614.9 45.4936 615.03V614.85C45.4936 613.92 44.9236 613.44 43.9536 613.44C43.3436 613.44 42.8636 613.59 42.3836 613.82L42.1536 613.19C42.7236 612.92 43.2736 612.76 44.0336 612.76C44.7636 612.76 45.3236 612.95 45.7036 613.33C46.0536 613.68 46.2336 614.19 46.2336 614.84V618H45.4936V617.22C45.1336 617.69 44.5436 618.11 43.6236 618.11ZM43.7736 617.5C44.7336 617.5 45.5036 616.92 45.5036 616.1V615.6C45.1136 615.49 44.6236 615.38 43.9836 615.38C43.0136 615.38 42.4736 615.8 42.4736 616.45V616.47C42.4736 617.12 43.0836 617.5 43.7736 617.5ZM47.8746 618V612.83H48.6446V614.18C49.0246 613.32 49.7746 612.71 50.7546 612.74V613.57H50.6946C49.5646 613.57 48.6446 614.38 48.6446 615.94V618H47.8746ZM53.2135 618.11C52.2535 618.11 51.2835 617.57 51.2835 616.5V616.48C51.2835 615.4 52.1835 614.81 53.4935 614.81C54.1635 614.81 54.6135 614.9 55.0835 615.03V614.85C55.0835 613.92 54.5135 613.44 53.5435 613.44C52.9335 613.44 52.4535 613.59 51.9735 613.82L51.7435 613.19C52.3135 612.92 52.8635 612.76 53.6235 612.76C54.3535 612.76 54.9135 612.95 55.2935 613.33C55.6435 613.68 55.8235 614.19 55.8235 614.84V618H55.0835V617.22C54.7235 617.69 54.1335 618.11 53.2135 618.11ZM53.3635 617.5C54.3235 617.5 55.0935 616.92 55.0935 616.1V615.6C54.7035 615.49 54.2135 615.38 53.5735 615.38C52.6035 615.38 52.0635 615.8 52.0635 616.45V616.47C52.0635 617.12 52.6735 617.5 53.3635 617.5ZM59.1457 618.09C58.3057 618.09 57.6857 617.68 57.6857 616.63V613.51H56.9657V612.83H57.6857V611.27H58.4557V612.83H60.0957V613.51H58.4557V616.53C58.4557 617.17 58.8057 617.39 59.3257 617.39C59.5957 617.39 59.8057 617.34 60.0757 617.21V617.87C59.8057 618.02 59.5157 618.09 59.1457 618.09ZM66.6267 618.11C65.3867 618.11 64.1567 617.13 64.1567 615.43V615.41C64.1567 613.73 65.3867 612.72 66.6267 612.72C67.5867 612.72 68.2067 613.23 68.6067 613.82V610.7H69.3767V618H68.6067V616.96C68.1767 617.58 67.5867 618.11 66.6267 618.11ZM66.7667 617.42C67.7267 617.42 68.6367 616.61 68.6367 615.42V615.4C68.6367 614.21 67.7267 613.41 66.7667 613.41C65.7667 613.41 64.9467 614.15 64.9467 615.4V615.42C64.9467 616.65 65.7767 617.42 66.7667 617.42ZM72.6373 618.11C71.6773 618.11 70.7073 617.57 70.7073 616.5V616.48C70.7073 615.4 71.6073 614.81 72.9173 614.81C73.5873 614.81 74.0373 614.9 74.5073 615.03V614.85C74.5073 613.92 73.9373 613.44 72.9673 613.44C72.3573 613.44 71.8773 613.59 71.3973 613.82L71.1673 613.19C71.7373 612.92 72.2873 612.76 73.0473 612.76C73.7773 612.76 74.3373 612.95 74.7173 613.33C75.0673 613.68 75.2473 614.19 75.2473 614.84V618H74.5073V617.22C74.1473 617.69 73.5573 618.11 72.6373 618.11ZM72.7873 617.5C73.7473 617.5 74.5173 616.92 74.5173 616.1V615.6C74.1273 615.49 73.6373 615.38 72.9973 615.38C72.0273 615.38 71.4873 615.8 71.4873 616.45V616.47C71.4873 617.12 72.0973 617.5 72.7873 617.5ZM76.8883 618V612.83H77.6583V613.73C78.0083 613.17 78.5383 612.72 79.4283 612.72C80.6683 612.72 81.4083 613.56 81.4083 614.79V618H80.6383V614.98C80.6383 614.02 80.1283 613.42 79.2083 613.42C78.3183 613.42 77.6583 614.07 77.6583 615.04V618H76.8883ZM86.0485 618V610.7H86.8185V615.74L89.6085 612.83H90.5685L88.3985 615.05L90.6385 618H89.7185L87.8685 615.59L86.8185 616.65V618H86.0485ZM93.7479 618.12C92.3379 618.12 91.1679 617.03 91.1679 615.43V615.41C91.1679 613.92 92.2079 612.72 93.6479 612.72C95.1779 612.72 96.0579 613.94 96.0579 615.45C96.0579 615.56 96.0579 615.61 96.0479 615.7H91.9479C92.0579 616.82 92.8479 617.45 93.7679 617.45C94.4879 617.45 94.9679 617.16 95.3979 616.72L95.8779 617.15C95.3579 617.74 94.7379 618.12 93.7479 618.12ZM91.9479 615.13H95.2779C95.1979 614.2 94.6679 613.37 93.6279 613.37C92.7179 613.37 92.0579 614.13 91.9479 615.13ZM99.1359 618.09C98.2959 618.09 97.6759 617.68 97.6759 616.63V613.51H96.9559V612.83H97.6759V611.27H98.4459V612.83H100.086V613.51H98.4459V616.53C98.4459 617.17 98.7959 617.39 99.3159 617.39C99.5859 617.39 99.7959 617.34 100.066 617.21V617.87C99.7959 618.02 99.5059 618.09 99.1359 618.09ZM103.562 618.12C102.152 618.12 100.982 617.03 100.982 615.43V615.41C100.982 613.92 102.022 612.72 103.462 612.72C104.992 612.72 105.872 613.94 105.872 615.45C105.872 615.56 105.872 615.61 105.862 615.7H101.762C101.872 616.82 102.662 617.45 103.582 617.45C104.302 617.45 104.782 617.16 105.212 616.72L105.692 617.15C105.172 617.74 104.552 618.12 103.562 618.12ZM101.762 615.13H105.092C105.012 614.2 104.482 613.37 103.442 613.37C102.532 613.37 101.872 614.13 101.762 615.13ZM107.22 618V612.83H107.99V613.73C108.34 613.17 108.87 612.72 109.76 612.72C111 612.72 111.74 613.56 111.74 614.79V618H110.97V614.98C110.97 614.02 110.46 613.42 109.54 613.42C108.65 613.42 107.99 614.07 107.99 615.04V618H107.22ZM115.112 618.09C114.272 618.09 113.652 617.68 113.652 616.63V613.51H112.932V612.83H113.652V611.27H114.422V612.83H116.062V613.51H114.422V616.53C114.422 617.17 114.772 617.39 115.292 617.39C115.562 617.39 115.772 617.34 116.042 617.21V617.87C115.772 618.02 115.482 618.09 115.112 618.09ZM119.325 618.11C118.085 618.11 117.345 617.27 117.345 616.04V612.83H118.115V615.85C118.115 616.81 118.625 617.41 119.545 617.41C120.425 617.41 121.095 616.76 121.095 615.79V612.83H121.855V618H121.095V617.1C120.745 617.66 120.215 618.11 119.325 618.11ZM125.128 618.11C124.168 618.11 123.198 617.57 123.198 616.5V616.48C123.198 615.4 124.098 614.81 125.408 614.81C126.078 614.81 126.528 614.9 126.998 615.03V614.85C126.998 613.92 126.428 613.44 125.458 613.44C124.848 613.44 124.368 613.59 123.888 613.82L123.658 613.19C124.228 612.92 124.778 612.76 125.538 612.76C126.268 612.76 126.828 612.95 127.208 613.33C127.558 613.68 127.738 614.19 127.738 614.84V618H126.998V617.22C126.638 617.69 126.048 618.11 125.128 618.11ZM125.278 617.5C126.238 617.5 127.008 616.92 127.008 616.1V615.6C126.618 615.49 126.128 615.38 125.488 615.38C124.518 615.38 123.978 615.8 123.978 616.45V616.47C123.978 617.12 124.588 617.5 125.278 617.5ZM129.379 618V612.83H130.149V613.73C130.499 613.17 131.029 612.72 131.919 612.72C133.159 612.72 133.899 613.56 133.899 614.79V618H133.129V614.98C133.129 614.02 132.619 613.42 131.699 613.42C130.809 613.42 130.149 614.07 130.149 615.04V618H129.379Z" fill="black"/>
<path d="M17.9476 219V205H23.6676C27.0076 205 29.0276 206.96 29.0276 209.84V209.88C29.0276 213.14 26.5076 214.8 23.3676 214.8H21.0276V219H17.9476ZM21.0276 212.06H23.4676C25.0076 212.06 25.9076 211.14 25.9076 209.94V209.9C25.9076 208.52 24.9476 207.78 23.4076 207.78H21.0276V212.06ZM35.9693 219.24C32.7493 219.24 30.3693 216.98 30.3693 213.7V213.66C30.3693 210.6 32.5493 208.08 35.6693 208.08C39.2493 208.08 40.8893 210.86 40.8893 213.9C40.8893 214.14 40.8693 214.4 40.8493 214.7H33.3893C33.6893 216.08 34.6493 216.8 36.0093 216.8C37.0293 216.8 37.7493 216.48 38.6093 215.7L40.3493 217.24C39.3293 218.5 37.9093 219.24 35.9693 219.24ZM33.3493 212.8H37.9293C37.7493 211.44 36.9493 210.52 35.6693 210.52C34.3893 210.52 33.5893 211.42 33.3493 212.8ZM43.1549 219V208.28H46.1949V210.44C46.8149 208.98 47.7949 208 49.6149 208.08V211.26H49.4549C47.4349 211.26 46.1949 212.46 46.1949 215.04V219H43.1549ZM55.2743 219.2C53.7543 219.2 52.1143 218.7 50.6743 217.58L51.9743 215.58C53.1543 216.44 54.3343 216.86 55.3543 216.86C56.2343 216.86 56.6343 216.54 56.6343 216.06V216.02C56.6343 215.36 55.5943 215.16 54.4143 214.78C52.9143 214.36 51.2143 213.64 51.2143 211.56V211.52C51.2143 209.34 52.9743 208.12 55.1343 208.12C56.4943 208.12 57.9543 208.58 59.1343 209.36L57.9743 211.46C56.9143 210.84 55.8543 210.46 55.0743 210.46C54.3343 210.46 53.9543 210.78 53.9543 211.2V211.24C53.9543 211.8 54.9743 212.16 56.1343 212.52C57.6343 213 59.3743 213.74 59.3743 215.7V215.74C59.3743 218.12 57.5943 219.2 55.2743 219.2ZM65.9604 215.58L68.3004 208.28H71.4604L67.3404 219.26C66.5404 221.44 65.6204 222.26 63.8204 222.26C62.7004 222.26 61.9004 221.98 61.1204 221.52L62.1404 219.32C62.5404 219.56 63.0404 219.74 63.4404 219.74C63.9804 219.74 64.2404 219.58 64.5004 219.04L60.3004 208.28H63.5204L65.9604 215.58ZM75.7848 219.2C73.7648 219.2 72.1048 218.06 72.1048 215.92V215.88C72.1048 213.56 73.8848 212.46 76.4248 212.46C77.5248 212.46 78.2648 212.64 79.0448 212.9V212.72C79.0448 211.44 78.2648 210.76 76.7448 210.76C75.5648 210.76 74.7648 210.96 73.7848 211.34L73.0248 209.02C74.2048 208.52 75.3648 208.16 77.1848 208.16C78.8648 208.16 80.0248 208.58 80.8048 209.36C81.6048 210.16 81.9648 211.34 81.9648 212.78V219H79.0248V217.84C78.2848 218.66 77.2848 219.2 75.7848 219.2ZM76.7048 217.1C78.1448 217.1 79.0848 216.34 79.0848 215.22V214.68C78.5448 214.44 77.8848 214.28 77.1448 214.28C75.8448 214.28 75.0448 214.8 75.0448 215.76V215.8C75.0448 216.62 75.7248 217.1 76.7048 217.1ZM84.5807 219V208.28H87.6207V210.44C88.2407 208.98 89.2207 208 91.0407 208.08V211.26H90.8807C88.8607 211.26 87.6207 212.46 87.6207 215.04V219H84.5807ZM95.4723 219.2C93.4523 219.2 91.7923 218.06 91.7923 215.92V215.88C91.7923 213.56 93.5723 212.46 96.1123 212.46C97.2123 212.46 97.9523 212.64 98.7323 212.9V212.72C98.7323 211.44 97.9523 210.76 96.4323 210.76C95.2523 210.76 94.4523 210.96 93.4723 211.34L92.7123 209.02C93.8923 208.52 95.0523 208.16 96.8723 208.16C98.5523 208.16 99.7123 208.58 100.492 209.36C101.292 210.16 101.652 211.34 101.652 212.78V219H98.7123V217.84C97.9723 218.66 96.9723 219.2 95.4723 219.2ZM96.3923 217.1C97.8323 217.1 98.7723 216.34 98.7723 215.22V214.68C98.2323 214.44 97.5723 214.28 96.8323 214.28C95.5323 214.28 94.7323 214.8 94.7323 215.76V215.8C94.7323 216.62 95.4123 217.1 96.3923 217.1ZM107.791 219.18C105.951 219.18 104.671 218.44 104.671 215.96V210.88H103.391V208.28H104.671V205.54H107.711V208.28H110.231V210.88H107.711V215.46C107.711 216.16 108.031 216.5 108.691 216.5C109.231 216.5 109.731 216.38 110.191 216.12V218.56C109.551 218.94 108.811 219.18 107.791 219.18ZM115.511 219.2C113.491 219.2 111.831 218.06 111.831 215.92V215.88C111.831 213.56 113.611 212.46 116.151 212.46C117.251 212.46 117.991 212.64 118.771 212.9V212.72C118.771 211.44 117.991 210.76 116.471 210.76C115.291 210.76 114.491 210.96 113.511 211.34L112.751 209.02C113.931 208.52 115.091 208.16 116.911 208.16C118.591 208.16 119.751 208.58 120.531 209.36C121.331 210.16 121.691 211.34 121.691 212.78V219H118.751V217.84C118.011 218.66 117.011 219.2 115.511 219.2ZM116.431 217.1C117.871 217.1 118.811 216.34 118.811 215.22V214.68C118.271 214.44 117.611 214.28 116.871 214.28C115.571 214.28 114.771 214.8 114.771 215.76V215.8C114.771 216.62 115.451 217.1 116.431 217.1ZM124.307 219V208.28H127.347V209.8C128.047 208.9 128.967 208.08 130.487 208.08C132.807 208.08 134.127 209.58 134.127 212.06V219H131.087V213.02C131.087 211.58 130.427 210.84 129.247 210.84C128.067 210.84 127.347 211.58 127.347 213.02V219H124.307ZM143.084 219V205H148.804C152.144 205 154.164 206.96 154.164 209.84V209.88C154.164 213.14 151.644 214.8 148.504 214.8H146.164V219H143.084ZM146.164 212.06H148.604C150.144 212.06 151.044 211.14 151.044 209.94V209.9C151.044 208.52 150.084 207.78 148.544 207.78H146.164V212.06ZM161.106 219.24C157.886 219.24 155.506 216.98 155.506 213.7V213.66C155.506 210.6 157.686 208.08 160.806 208.08C164.386 208.08 166.026 210.86 166.026 213.9C166.026 214.14 166.006 214.4 165.986 214.7H158.526C158.826 216.08 159.786 216.8 161.146 216.8C162.166 216.8 162.886 216.48 163.746 215.7L165.486 217.24C164.466 218.5 163.046 219.24 161.106 219.24ZM158.486 212.8H163.066C162.886 211.44 162.086 210.52 160.806 210.52C159.526 210.52 158.726 211.42 158.486 212.8ZM172.052 219.2C170.532 219.2 168.892 218.7 167.452 217.58L168.752 215.58C169.932 216.44 171.112 216.86 172.132 216.86C173.012 216.86 173.412 216.54 173.412 216.06V216.02C173.412 215.36 172.372 215.16 171.192 214.78C169.692 214.36 167.992 213.64 167.992 211.56V211.52C167.992 209.34 169.752 208.12 171.912 208.12C173.272 208.12 174.732 208.58 175.912 209.36L174.752 211.46C173.692 210.84 172.632 210.46 171.852 210.46C171.112 210.46 170.732 210.78 170.732 211.2V211.24C170.732 211.8 171.752 212.16 172.912 212.52C174.412 213 176.152 213.74 176.152 215.7V215.74C176.152 218.12 174.372 219.2 172.052 219.2ZM183.411 219.24C180.191 219.24 177.811 216.98 177.811 213.7V213.66C177.811 210.6 179.991 208.08 183.111 208.08C186.691 208.08 188.331 210.86 188.331 213.9C188.331 214.14 188.311 214.4 188.291 214.7H180.831C181.131 216.08 182.091 216.8 183.451 216.8C184.471 216.8 185.191 216.48 186.051 215.7L187.791 217.24C186.771 218.5 185.351 219.24 183.411 219.24ZM180.791 212.8H185.371C185.191 211.44 184.391 210.52 183.111 210.52C181.831 210.52 181.031 211.42 180.791 212.8ZM190.596 219V208.28H193.636V210.44C194.256 208.98 195.236 208 197.056 208.08V211.26H196.896C194.876 211.26 193.636 212.46 193.636 215.04V219H190.596ZM202.576 219.18C200.736 219.18 199.456 218.44 199.456 215.96V210.88H198.176V208.28H199.456V205.54H202.496V208.28H205.016V210.88H202.496V215.46C202.496 216.16 202.816 216.5 203.476 216.5C204.016 216.5 204.516 216.38 204.976 216.12V218.56C204.336 218.94 203.596 219.18 202.576 219.18ZM210.296 219.2C208.276 219.2 206.616 218.06 206.616 215.92V215.88C206.616 213.56 208.396 212.46 210.936 212.46C212.036 212.46 212.776 212.64 213.556 212.9V212.72C213.556 211.44 212.776 210.76 211.256 210.76C210.076 210.76 209.276 210.96 208.296 211.34L207.536 209.02C208.716 208.52 209.876 208.16 211.696 208.16C213.376 208.16 214.536 208.58 215.316 209.36C216.116 210.16 216.476 211.34 216.476 212.78V219H213.536V217.84C212.796 218.66 211.796 219.2 210.296 219.2ZM211.216 217.1C212.656 217.1 213.596 216.34 213.596 215.22V214.68C213.056 214.44 212.396 214.28 211.656 214.28C210.356 214.28 209.556 214.8 209.556 215.76V215.8C209.556 216.62 210.236 217.1 211.216 217.1Z" fill="#043F8C"/>
<rect width="504" height="167" fill="#043F8C"/>
<path d="M118.739 79V65H124.459C127.799 65 129.819 66.96 129.819 69.84V69.88C129.819 73.14 127.299 74.8 124.159 74.8H121.819V79H118.739ZM121.819 72.06H124.259C125.799 72.06 126.699 71.14 126.699 69.94V69.9C126.699 68.52 125.739 67.78 124.199 67.78H121.819V72.06ZM132.098 79V65H137.818C141.158 65 143.178 66.96 143.178 69.84V69.88C143.178 73.14 140.658 74.8 137.518 74.8H135.178V79H132.098ZM135.178 72.06H137.618C139.158 72.06 140.058 71.14 140.058 69.94V69.9C140.058 68.52 139.098 67.78 137.558 67.78H135.178V72.06ZM145.457 79V65H150.917C155.317 65 158.357 68.02 158.357 71.96V72C158.357 75.94 155.317 79 150.917 79H145.457ZM150.917 67.78H148.537V76.22H150.917C153.417 76.22 155.137 74.52 155.137 72.04V72C155.137 69.52 153.417 67.78 150.917 67.78ZM161.102 79V65H167.602C169.222 65 170.442 65.42 171.262 66.24C171.902 66.88 172.222 67.68 172.222 68.62V68.66C172.222 70.22 171.382 71.16 170.382 71.68C172.002 72.3 173.002 73.26 173.002 75.12V75.16C173.002 77.72 170.922 79 167.762 79H161.102ZM169.162 69.18V69.14C169.162 68.2 168.442 67.7 167.142 67.7H164.102V70.66H166.942C168.302 70.66 169.162 70.22 169.162 69.18ZM169.942 74.78V74.74C169.942 73.8 169.262 73.22 167.662 73.22H164.102V76.3H167.762C169.122 76.3 169.942 75.82 169.942 74.78ZM188.332 79.24C184.012 79.24 180.912 76.02 180.912 72.04V72C180.912 68.02 184.052 64.76 188.372 64.76C192.692 64.76 195.792 67.98 195.792 71.96V72C195.792 75.98 192.652 79.24 188.332 79.24ZM188.372 76.4C190.852 76.4 192.572 74.44 192.572 72.04V72C192.572 69.6 190.812 67.6 188.332 67.6C185.852 67.6 184.132 69.56 184.132 71.96V72C184.132 74.4 185.892 76.4 188.372 76.4ZM198.204 79V68.28H201.244V69.8C201.944 68.9 202.864 68.08 204.384 68.08C206.704 68.08 208.024 69.58 208.024 72.06V79H204.984V73.02C204.984 71.58 204.324 70.84 203.144 70.84C201.964 70.84 201.244 71.58 201.244 73.02V79H198.204ZM210.805 79V64.4H213.845V79H210.805ZM216.76 67.1V64.4H219.96V67.1H216.76ZM216.84 79V68.28H219.88V79H216.84ZM222.735 79V68.28H225.775V69.8C226.475 68.9 227.395 68.08 228.915 68.08C231.235 68.08 232.555 69.58 232.555 72.06V79H229.515V73.02C229.515 71.58 228.855 70.84 227.675 70.84C226.495 70.84 225.775 71.58 225.775 73.02V79H222.735ZM240.276 79.24C237.056 79.24 234.676 76.98 234.676 73.7V73.66C234.676 70.6 236.856 68.08 239.976 68.08C243.556 68.08 245.196 70.86 245.196 73.9C245.196 74.14 245.176 74.4 245.156 74.7H237.696C237.996 76.08 238.956 76.8 240.316 76.8C241.336 76.8 242.056 76.48 242.916 75.7L244.656 77.24C243.636 78.5 242.216 79.24 240.276 79.24ZM237.656 72.8H242.236C242.056 71.44 241.256 70.52 239.976 70.52C238.696 70.52 237.896 71.42 237.656 72.8ZM256.958 79.2C254.778 79.2 253.338 78.24 252.378 77.1L254.318 74.94C255.118 75.82 255.898 76.34 256.878 76.34C258.058 76.34 258.758 75.64 258.758 74.02V65H261.918V74.16C261.918 75.84 261.458 77.04 260.598 77.9C259.738 78.76 258.478 79.2 256.958 79.2ZM269.827 79.24C266.607 79.24 264.227 76.98 264.227 73.7V73.66C264.227 70.6 266.407 68.08 269.527 68.08C273.107 68.08 274.747 70.86 274.747 73.9C274.747 74.14 274.727 74.4 274.707 74.7H267.247C267.547 76.08 268.507 76.8 269.867 76.8C270.887 76.8 271.607 76.48 272.467 75.7L274.207 77.24C273.187 78.5 271.767 79.24 269.827 79.24ZM267.207 72.8H271.787C271.607 71.44 270.807 70.52 269.527 70.52C268.247 70.52 267.447 71.42 267.207 72.8ZM277.012 79V68.28H280.052V69.8C280.752 68.9 281.672 68.08 283.192 68.08C285.512 68.08 286.832 69.58 286.832 72.06V79H283.792V73.02C283.792 71.58 283.132 70.84 281.952 70.84C280.772 70.84 280.052 71.58 280.052 73.02V79H277.012ZM289.533 67.1V64.4H292.733V67.1H289.533ZM289.213 82.26C288.653 82.26 288.313 82.22 287.893 82.14V79.76C288.133 79.8 288.353 79.82 288.533 79.82C289.173 79.82 289.613 79.48 289.613 78.58V68.28H292.653V78.82C292.653 81.2 291.473 82.26 289.213 82.26ZM298.548 79.2C296.528 79.2 294.868 78.06 294.868 75.92V75.88C294.868 73.56 296.648 72.46 299.188 72.46C300.288 72.46 301.028 72.64 301.808 72.9V72.72C301.808 71.44 301.028 70.76 299.508 70.76C298.328 70.76 297.528 70.96 296.548 71.34L295.788 69.02C296.968 68.52 298.128 68.16 299.948 68.16C301.628 68.16 302.788 68.58 303.568 69.36C304.368 70.16 304.728 71.34 304.728 72.78V79H301.788V77.84C301.048 78.66 300.048 79.2 298.548 79.2ZM299.468 77.1C300.908 77.1 301.848 76.34 301.848 75.22V74.68C301.308 74.44 300.648 74.28 299.908 74.28C298.608 74.28 297.808 74.8 297.808 75.76V75.8C297.808 76.62 298.488 77.1 299.468 77.1ZM307.344 79V68.28H310.384V69.8C311.084 68.9 312.004 68.08 313.524 68.08C315.844 68.08 317.164 69.58 317.164 72.06V79H314.124V73.02C314.124 71.58 313.464 70.84 312.284 70.84C311.104 70.84 310.384 71.58 310.384 73.02V79H307.344ZM324.605 82.24C322.845 82.24 321.225 81.84 319.865 81.12L320.905 78.84C322.025 79.46 323.085 79.82 324.525 79.82C326.605 79.82 327.585 78.82 327.585 76.9V76.38C326.685 77.48 325.705 78.12 324.085 78.12C321.585 78.12 319.325 76.32 319.325 73.12V73.08C319.325 69.88 321.625 68.08 324.085 68.08C325.745 68.08 326.725 68.78 327.545 69.68V68.28H330.585V76.58C330.585 78.48 330.125 79.9 329.225 80.8C328.205 81.82 326.685 82.24 324.605 82.24ZM324.965 75.6C326.465 75.6 327.585 74.58 327.585 73.12V73.08C327.585 71.62 326.465 70.6 324.965 70.6C323.485 70.6 322.365 71.62 322.365 73.08V73.12C322.365 74.62 323.465 75.6 324.965 75.6ZM59.9128 103.2C57.6728 103.2 55.8728 102.48 54.1928 100.96L55.1728 99.8C56.6328 101.14 58.0328 101.78 59.9728 101.78C61.8728 101.78 63.0928 100.78 63.0928 99.4V99.36C63.0928 98.06 62.3928 97.34 59.4528 96.7C56.2328 96 54.7528 94.96 54.7528 92.66V92.62C54.7528 90.44 56.6928 88.8 59.3528 88.8C61.4128 88.8 62.8328 89.38 64.2728 90.52L63.3528 91.74C62.0528 90.68 60.7528 90.22 59.3128 90.22C57.4728 90.22 56.3328 91.2 56.3328 92.48V92.52C56.3328 93.84 57.0328 94.6 60.1328 95.24C63.2528 95.94 64.6928 97.06 64.6928 99.2V99.24C64.6928 101.64 62.6928 103.2 59.9128 103.2ZM72.1658 103.24C69.3458 103.24 67.0058 101.06 67.0058 97.86V97.82C67.0058 94.84 69.0858 92.44 71.9658 92.44C75.0258 92.44 76.7858 94.88 76.7858 97.9C76.7858 98.12 76.7858 98.22 76.7658 98.4H68.5658C68.7858 100.64 70.3658 101.9 72.2058 101.9C73.6458 101.9 74.6058 101.32 75.4658 100.44L76.4258 101.3C75.3858 102.48 74.1458 103.24 72.1658 103.24ZM68.5658 97.26H75.2258C75.0658 95.4 74.0058 93.74 71.9258 93.74C70.1058 93.74 68.7858 95.26 68.5658 97.26ZM79.4817 103V88.4H81.0217V98.48L86.6017 92.66H88.5217L84.1817 97.1L88.6617 103H86.8217L83.1217 98.18L81.0217 100.3V103H79.4817ZM95.0806 103.24C91.9806 103.24 89.7206 100.8 89.7206 97.88V97.84C89.7206 94.9 91.9806 92.44 95.1206 92.44C98.2406 92.44 100.501 94.88 100.501 97.8V97.84C100.501 100.78 98.2006 103.24 95.0806 103.24ZM95.1206 101.86C97.3606 101.86 98.9206 100.04 98.9206 97.88V97.84C98.9206 95.62 97.2606 93.8 95.0806 93.8C92.8406 93.8 91.3006 95.62 91.3006 97.8V97.84C91.3006 100.06 92.9406 101.86 95.1206 101.86ZM103.43 103V88.4H104.97V103H103.43ZM111.624 103.22C109.704 103.22 107.764 102.14 107.764 100V99.96C107.764 97.8 109.564 96.62 112.184 96.62C113.524 96.62 114.424 96.8 115.364 97.06V96.7C115.364 94.84 114.224 93.88 112.284 93.88C111.064 93.88 110.104 94.18 109.144 94.64L108.684 93.38C109.824 92.84 110.924 92.52 112.444 92.52C113.904 92.52 115.024 92.9 115.784 93.66C116.484 94.36 116.844 95.38 116.844 96.68V103H115.364V101.44C114.644 102.38 113.464 103.22 111.624 103.22ZM111.924 102C113.844 102 115.384 100.84 115.384 99.2V98.2C114.604 97.98 113.624 97.76 112.344 97.76C110.404 97.76 109.324 98.6 109.324 99.9V99.94C109.324 101.24 110.544 102 111.924 102ZM120.126 103V88.4H121.666V94.46C122.366 93.34 123.426 92.44 125.206 92.44C127.686 92.44 129.166 94.12 129.166 96.58V103H127.626V96.96C127.626 95.04 126.606 93.84 124.766 93.84C122.986 93.84 121.666 95.14 121.666 97.08V103H120.126ZM138.707 103V89H140.307L145.407 96.64L150.507 89H152.107V103H150.527V91.66L145.427 99.16H145.347L140.247 91.68V103H138.707ZM160.33 103.24C157.51 103.24 155.17 101.06 155.17 97.86V97.82C155.17 94.84 157.25 92.44 160.13 92.44C163.19 92.44 164.95 94.88 164.95 97.9C164.95 98.12 164.95 98.22 164.93 98.4H156.73C156.95 100.64 158.53 101.9 160.37 101.9C161.81 101.9 162.77 101.32 163.63 100.44L164.59 101.3C163.55 102.48 162.31 103.24 160.33 103.24ZM156.73 97.26H163.39C163.23 95.4 162.17 93.74 160.09 93.74C158.27 93.74 156.95 95.26 156.73 97.26ZM167.646 103V92.66H169.186V94.46C169.886 93.34 170.946 92.44 172.726 92.44C175.206 92.44 176.686 94.12 176.686 96.58V103H175.146V96.96C175.146 95.04 174.126 93.84 172.286 93.84C170.506 93.84 169.186 95.14 169.186 97.08V103H167.646ZM184.49 103.24C181.67 103.24 179.33 101.06 179.33 97.86V97.82C179.33 94.84 181.41 92.44 184.29 92.44C187.35 92.44 189.11 94.88 189.11 97.9C189.11 98.12 189.11 98.22 189.09 98.4H180.89C181.11 100.64 182.69 101.9 184.53 101.9C185.97 101.9 186.93 101.32 187.79 100.44L188.75 101.3C187.71 102.48 186.47 103.24 184.49 103.24ZM180.89 97.26H187.55C187.39 95.4 186.33 93.74 184.25 93.74C182.43 93.74 181.11 95.26 180.89 97.26ZM191.806 103V92.66H193.346V94.46C194.046 93.34 195.106 92.44 196.886 92.44C199.366 92.44 200.846 94.12 200.846 96.58V103H199.306V96.96C199.306 95.04 198.286 93.84 196.446 93.84C194.666 93.84 193.346 95.14 193.346 97.08V103H191.806ZM208.71 106.24C206.97 106.24 205.39 105.76 204.01 104.8L204.71 103.6C205.91 104.46 207.19 104.92 208.69 104.92C210.99 104.92 212.45 103.66 212.45 101.24V100.02C211.55 101.22 210.29 102.2 208.39 102.2C205.91 102.2 203.53 100.32 203.53 97.36V97.32C203.53 94.3 205.91 92.44 208.39 92.44C210.33 92.44 211.57 93.4 212.43 94.52V92.66H213.97V101.2C213.97 102.8 213.51 104 212.65 104.86C211.71 105.8 210.37 106.24 208.71 106.24ZM208.69 100.84C210.65 100.84 212.49 99.42 212.49 97.34V97.3C212.49 95.18 210.65 93.8 208.69 93.8C206.71 93.8 205.11 95.16 205.11 97.28V97.32C205.11 99.4 206.77 100.84 208.69 100.84ZM220.491 103.22C218.571 103.22 216.631 102.14 216.631 100V99.96C216.631 97.8 218.431 96.62 221.051 96.62C222.391 96.62 223.291 96.8 224.231 97.06V96.7C224.231 94.84 223.091 93.88 221.151 93.88C219.931 93.88 218.971 94.18 218.011 94.64L217.551 93.38C218.691 92.84 219.791 92.52 221.311 92.52C222.771 92.52 223.891 92.9 224.651 93.66C225.351 94.36 225.711 95.38 225.711 96.68V103H224.231V101.44C223.511 102.38 222.331 103.22 220.491 103.22ZM220.791 102C222.711 102 224.251 100.84 224.251 99.2V98.2C223.471 97.98 222.491 97.76 221.211 97.76C219.271 97.76 218.191 98.6 218.191 99.9V99.94C218.191 101.24 219.411 102 220.791 102ZM228.993 103V88.4H230.533V94.46C231.233 93.34 232.293 92.44 234.073 92.44C236.553 92.44 238.033 94.12 238.033 96.58V103H236.493V96.96C236.493 95.04 235.473 93.84 233.633 93.84C231.853 93.84 230.533 95.14 230.533 97.08V103H228.993ZM247.574 103V89H252.814C255.974 89 258.054 90.68 258.054 93.44V93.48C258.054 96.5 255.534 98.06 252.554 98.06H249.154V103H247.574ZM249.154 96.62H252.614C254.934 96.62 256.454 95.38 256.454 93.54V93.5C256.454 91.5 254.954 90.46 252.694 90.46H249.154V96.62ZM265.095 103.24C262.275 103.24 259.935 101.06 259.935 97.86V97.82C259.935 94.84 262.015 92.44 264.895 92.44C267.955 92.44 269.715 94.88 269.715 97.9C269.715 98.12 269.715 98.22 269.695 98.4H261.495C261.715 100.64 263.295 101.9 265.135 101.9C266.575 101.9 267.535 101.32 268.395 100.44L269.355 101.3C268.315 102.48 267.075 103.24 265.095 103.24ZM261.495 97.26H268.155C267.995 95.4 266.935 93.74 264.855 93.74C263.035 93.74 261.715 95.26 261.495 97.26ZM272.411 103V92.66H273.951V95.36C274.711 93.64 276.211 92.42 278.171 92.48V94.14H278.051C275.791 94.14 273.951 95.76 273.951 98.88V103H272.411ZM283.977 103.18C282.297 103.18 281.057 102.36 281.057 100.26V94.02H279.617V92.66H281.057V89.54H282.597V92.66H285.877V94.02H282.597V100.06C282.597 101.34 283.297 101.78 284.337 101.78C284.877 101.78 285.297 101.68 285.837 101.42V102.74C285.297 103.04 284.717 103.18 283.977 103.18ZM291.683 103.22C289.763 103.22 287.823 102.14 287.823 100V99.96C287.823 97.8 289.623 96.62 292.243 96.62C293.583 96.62 294.483 96.8 295.423 97.06V96.7C295.423 94.84 294.283 93.88 292.343 93.88C291.123 93.88 290.163 94.18 289.203 94.64L288.743 93.38C289.883 92.84 290.983 92.52 292.503 92.52C293.963 92.52 295.083 92.9 295.843 93.66C296.543 94.36 296.903 95.38 296.903 96.68V103H295.423V101.44C294.703 102.38 293.523 103.22 291.683 103.22ZM291.983 102C293.903 102 295.443 100.84 295.443 99.2V98.2C294.663 97.98 293.683 97.76 292.403 97.76C290.463 97.76 289.383 98.6 289.383 99.9V99.94C289.383 101.24 290.603 102 291.983 102ZM300.185 103V92.66H301.725V94.4C302.425 93.36 303.325 92.44 305.065 92.44C306.745 92.44 307.825 93.32 308.385 94.5C309.145 93.36 310.205 92.44 312.025 92.44C314.425 92.44 315.865 94.02 315.865 96.6V103H314.325V96.96C314.325 94.96 313.325 93.84 311.645 93.84C310.105 93.84 308.785 95 308.785 97.04V103H307.265V96.92C307.265 94.98 306.265 93.84 304.605 93.84C302.965 93.84 301.725 95.2 301.725 97.1V103H300.185ZM322.23 103.22C320.31 103.22 318.37 102.14 318.37 100V99.96C318.37 97.8 320.17 96.62 322.79 96.62C324.13 96.62 325.03 96.8 325.97 97.06V96.7C325.97 94.84 324.83 93.88 322.89 93.88C321.67 93.88 320.71 94.18 319.75 94.64L319.29 93.38C320.43 92.84 321.53 92.52 323.05 92.52C324.51 92.52 325.63 92.9 326.39 93.66C327.09 94.36 327.45 95.38 327.45 96.68V103H325.97V101.44C325.25 102.38 324.07 103.22 322.23 103.22ZM322.53 102C324.45 102 325.99 100.84 325.99 99.2V98.2C325.21 97.98 324.23 97.76 322.95 97.76C321.01 97.76 319.93 98.6 319.93 99.9V99.94C319.93 101.24 321.15 102 322.53 102ZM342.568 104.8L341.908 105.82C338.328 103.82 336.368 100.96 336.368 97.26V97.24C336.368 93.58 338.328 90.7 341.908 88.7L342.568 89.72C339.508 91.66 337.928 94.04 337.928 97.26V97.28C337.928 100.46 339.508 102.88 342.568 104.8ZM350.46 103.2C348.22 103.2 346.42 102.48 344.74 100.96L345.72 99.8C347.18 101.14 348.58 101.78 350.52 101.78C352.42 101.78 353.64 100.78 353.64 99.4V99.36C353.64 98.06 352.94 97.34 350 96.7C346.78 96 345.3 94.96 345.3 92.66V92.62C345.3 90.44 347.24 88.8 349.9 88.8C351.96 88.8 353.38 89.38 354.82 90.52L353.9 91.74C352.6 90.68 351.3 90.22 349.86 90.22C348.02 90.22 346.88 91.2 346.88 92.48V92.52C346.88 93.84 347.58 94.6 350.68 95.24C353.8 95.94 355.24 97.06 355.24 99.2V99.24C355.24 101.64 353.24 103.2 350.46 103.2ZM358.453 103V89H360.053L365.153 96.64L370.253 89H371.853V103H370.273V91.66L365.173 99.16H365.093L359.993 91.68V103H358.453ZM375.816 103V89H381.056C384.216 89 386.296 90.68 386.296 93.44V93.48C386.296 96.5 383.776 98.06 380.796 98.06H377.396V103H375.816ZM377.396 96.62H380.856C383.176 96.62 384.696 95.38 384.696 93.54V93.5C384.696 91.5 383.196 90.46 380.936 90.46H377.396V96.62ZM388.975 105.82L388.315 104.8C391.375 102.86 392.955 100.48 392.955 97.26V97.24C392.955 94.06 391.375 91.64 388.315 89.72L388.975 88.7C392.555 90.7 394.515 93.56 394.515 97.26V97.28C394.515 100.94 392.555 103.82 388.975 105.82Z" fill="white"/>
</svg>
