<svg width="46" height="46" viewBox="0 0 46 46" fill="none" xmlns="http://www.w3.org/2000/svg">
<path d="M39.6048 35.9774C39.6048 35.9774 37.3841 38.1586 36.8398 38.7981C35.9533 39.7441 34.9087 40.1909 33.5394 40.1909C33.4077 40.1909 33.2673 40.1909 33.1356 40.1821C30.5286 40.0157 28.106 38.9995 26.289 38.1323C21.3208 35.7321 16.9582 32.3246 13.333 28.006C10.3398 24.4057 8.33847 21.077 7.01303 17.503C6.1967 15.3218 5.89826 13.6224 6.02992 12.0193C6.1177 10.9944 6.5127 10.1447 7.24125 9.41764L10.2345 6.43054C10.6646 6.02759 11.121 5.80859 11.5687 5.80859C12.1217 5.80859 12.5693 6.14147 12.8502 6.42178C12.859 6.43054 12.8678 6.4393 12.8766 6.44806C13.412 6.94737 13.9211 7.4642 14.4566 8.01607C14.7287 8.29638 15.0096 8.5767 15.2905 8.86577L17.6868 11.2572C18.6172 12.1857 18.6172 13.0442 17.6868 13.9727C17.4322 14.2268 17.1864 14.4808 16.9319 14.7261C16.1946 15.4794 16.7738 14.9014 16.0101 15.5847C15.9926 15.6022 15.975 15.6109 15.9662 15.6285C15.2113 16.3818 15.3518 17.1176 15.5098 17.6169C15.5186 17.6432 15.5273 17.6695 15.5361 17.6958C16.1593 19.2025 17.0371 20.6216 18.3713 22.3122L18.3801 22.321C20.8028 25.2993 23.3571 27.6207 26.1748 29.3989C26.5346 29.6266 26.9033 29.8106 27.2544 29.9858C27.5704 30.1435 27.8689 30.2924 28.1234 30.4501C28.1585 30.4676 28.1936 30.4939 28.2287 30.5114C28.5272 30.6603 28.8081 30.7304 29.0977 30.7304C29.8263 30.7304 30.2827 30.2749 30.432 30.126L32.1525 28.4089C32.451 28.1111 32.925 27.7519 33.478 27.7519C34.0222 27.7519 34.4698 28.0936 34.742 28.3914C34.7507 28.4002 34.7507 28.4002 34.7595 28.4089L39.5961 33.2356C40.5002 34.1291 39.6048 35.9774 39.6048 35.9774Z" stroke="white" stroke-width="2" stroke-linecap="round" stroke-linejoin="round"/>
</svg>
